<!-- Generator: Adobe Illustrator 22.1.0, SVG Export Plug-In  -->
<svg version="1.1"
	 xmlns="http://www.w3.org/2000/svg" xmlns:xlink="http://www.w3.org/1999/xlink" xmlns:a="http://ns.adobe.com/AdobeSVGViewerExtensions/3.0/"
	 x="0px" y="0px" width="223px" height="43px" viewBox="0 0 223 43" style="enable-background:new 0 0 223 43;"
	 xml:space="preserve">
<style type="text/css">
	.st0{fill:#FFFFFF;}
	.st1{fill:#333333;}
	.st2{fill:#666666;}
	.st3{fill:#808080;}
</style>
<defs>
</defs>
<g>
	<rect class="st0" width="223" height="43"/>
	<g>
		<path class="st1" d="M20.441,26.741c0,0.017,0,0.14,0,0.372s-0.027,0.516-0.084,0.852s-0.152,0.688-0.288,1.057
			c-0.136,0.367-0.34,0.695-0.612,0.984c-0.623,0.656-1.488,0.983-2.592,0.983s-1.943-0.327-2.52-0.983
			c-0.288-0.305-0.5-0.633-0.637-0.984c-0.136-0.352-0.228-0.685-0.275-0.996c-0.049-0.313-0.068-0.58-0.061-0.805
			c0.008-0.224,0.012-0.359,0.012-0.408v-9.863c0-1.279,0.385-2.28,1.152-3c0.305-0.271,0.66-0.488,1.068-0.648
			c0.408-0.159,0.828-0.24,1.26-0.24c0.864,0,1.648,0.289,2.352,0.865c0.4,0.336,0.709,0.795,0.925,1.379s0.323,1.221,0.323,1.908
			h-0.527c0-0.623-0.092-1.168-0.275-1.632c-0.185-0.464-0.425-0.844-0.721-1.14c-0.297-0.296-0.628-0.516-0.996-0.66
			s-0.729-0.217-1.08-0.217c-0.368,0-0.732,0.068-1.092,0.205c-0.359,0.136-0.68,0.34-0.96,0.611
			c-0.28,0.272-0.504,0.625-0.672,1.057s-0.252,0.936-0.252,1.512v9.888v0.024c0,0.4,0.02,0.74,0.06,1.02
			c0.04,0.28,0.12,0.58,0.24,0.9s0.3,0.607,0.54,0.863c0.512,0.561,1.224,0.841,2.136,0.841c0.944,0,1.68-0.28,2.208-0.841
			c0.24-0.256,0.421-0.547,0.54-0.875c0.12-0.328,0.204-0.645,0.252-0.948c0.049-0.304,0.072-0.664,0.072-1.08H20.441z"/>
		<path class="st1" d="M32.321,26.837c0,0.032,0,0.152,0,0.36s-0.032,0.46-0.096,0.756c-0.063,0.297-0.163,0.611-0.3,0.948
			c-0.135,0.336-0.338,0.647-0.609,0.936c-0.605,0.656-1.459,0.984-2.559,0.984c-1.068,0-1.906-0.328-2.512-0.984
			c-0.271-0.288-0.475-0.607-0.609-0.96c-0.137-0.352-0.229-0.684-0.275-0.996c-0.049-0.312-0.072-0.58-0.072-0.804s0-0.36,0-0.408
			V13.182h0.252h0.252v13.512v0.023c0,0.177,0,0.348,0,0.516c0,0.169,0.016,0.333,0.049,0.492c0.031,0.289,0.107,0.588,0.229,0.9
			c0.12,0.313,0.301,0.604,0.542,0.876c0.498,0.544,1.212,0.816,2.146,0.816c0.947,0,1.686-0.28,2.217-0.841
			c0.225-0.256,0.396-0.531,0.518-0.828c0.12-0.295,0.205-0.579,0.253-0.852c0.032-0.16,0.052-0.315,0.06-0.468
			c0.008-0.151,0.013-0.308,0.013-0.468v-0.024V13.182h0.252h0.252V26.837z"/>
		<path class="st1" d="M43.938,30.27v0.216v0.239h-6.769v-0.239V13.541v-0.264h6.673v0.264v0.191h-6.168v9.072h4.823v0.24v0.217
			h-4.823v7.008H43.938z"/>
		<path class="st1" d="M52.602,23.189c-0.177,0.031-0.357,0.052-0.541,0.06c-0.184,0.009-0.38,0.013-0.588,0.013h-2.256v7.463
			h-0.264h-0.24v-17.16v-0.287h0.288h2.472c0.864,0,1.588,0.136,2.172,0.408c0.584,0.271,1.036,0.656,1.356,1.151
			c0.304,0.48,0.54,1.021,0.708,1.62s0.252,1.204,0.252,1.813c0,0.623-0.084,1.236-0.252,1.836s-0.404,1.132-0.708,1.596
			c-0.224,0.352-0.488,0.648-0.792,0.889c-0.305,0.239-0.688,0.407-1.152,0.504L52.602,23.189z M54.568,21.434
			c0.272-0.434,0.488-0.926,0.648-1.48c0.16-0.553,0.24-1.119,0.24-1.695c0-0.563-0.08-1.119-0.24-1.674
			c-0.16-0.553-0.376-1.046-0.648-1.479c-0.271-0.417-0.664-0.741-1.176-0.974s-1.152-0.35-1.92-0.35h-2.256v8.977h2.256
			c0.928,0,1.608-0.117,2.041-0.35C53.945,22.176,54.297,21.851,54.568,21.434z M53.057,23.094l3.336,7.607h-0.527l-3.288-7.512
			L53.057,23.094z"/>
		<path class="st1" d="M66.305,14.837c0.305,0.48,0.541,1.021,0.709,1.62s0.252,1.204,0.252,1.813c0,0.623-0.084,1.236-0.252,1.836
			s-0.404,1.132-0.709,1.596c-0.336,0.512-0.768,0.9-1.295,1.164c-0.529,0.264-1.272,0.396-2.232,0.396h-2.256v7.463h-0.264h-0.24
			v-17.16v-0.287h0.287h2.473c0.863,0,1.588,0.136,2.172,0.408C65.533,13.957,65.984,14.342,66.305,14.837z M65.873,21.434
			c0.271-0.434,0.488-0.926,0.648-1.48c0.159-0.553,0.24-1.119,0.24-1.695c0-0.563-0.081-1.119-0.24-1.674
			c-0.16-0.553-0.377-1.046-0.648-1.479c-0.271-0.417-0.664-0.741-1.176-0.974s-1.152-0.35-1.92-0.35h-2.256v8.977h2.256
			c0.928,0,1.607-0.117,2.039-0.35C65.249,22.176,65.602,21.851,65.873,21.434z"/>
		<path class="st1" d="M78.665,26.957c0,0.049,0,0.176,0,0.385c0,0.207-0.032,0.459-0.096,0.756c-0.064,0.296-0.165,0.611-0.3,0.947
			c-0.137,0.336-0.34,0.648-0.612,0.936c-0.32,0.32-0.772,0.564-1.356,0.732s-1.148,0.252-1.691,0.252
			c-0.545,0-1.104-0.084-1.68-0.252c-0.576-0.168-1.017-0.412-1.32-0.732c-0.272-0.287-0.477-0.607-0.612-0.959
			s-0.228-0.685-0.276-0.996c-0.047-0.313-0.072-0.58-0.072-0.805c0-0.224,0-0.359,0-0.408v-9.84c0-0.639,0.093-1.211,0.277-1.715
			c0.184-0.505,0.475-0.933,0.875-1.285c0.16-0.144,0.355-0.271,0.588-0.383c0.232-0.112,0.477-0.205,0.732-0.277
			c0.256-0.071,0.512-0.127,0.768-0.168c0.256-0.039,0.496-0.06,0.721-0.06c0.207,0,0.443,0.017,0.707,0.048
			c0.265,0.033,0.529,0.084,0.793,0.156s0.512,0.16,0.744,0.264c0.231,0.104,0.428,0.229,0.588,0.373
			c0.816,0.719,1.224,1.736,1.224,3.047V26.957z M78.161,16.973c0-0.56-0.072-1.039-0.216-1.439c-0.145-0.4-0.344-0.736-0.6-1.008
			c-0.145-0.16-0.333-0.301-0.564-0.42c-0.232-0.12-0.477-0.221-0.732-0.301s-0.512-0.135-0.768-0.168
			c-0.256-0.031-0.48-0.047-0.672-0.047c-0.369,0-0.756,0.043-1.164,0.131s-0.78,0.256-1.116,0.504
			c-0.336,0.249-0.612,0.593-0.828,1.033c-0.216,0.439-0.323,1.012-0.323,1.715v9.864c-0.017,0.4,0,0.744,0.047,1.032
			c0.049,0.288,0.129,0.592,0.24,0.912s0.288,0.607,0.528,0.863c0.256,0.273,0.64,0.477,1.151,0.613
			c0.512,0.135,1,0.203,1.465,0.203c0.24,0,0.488-0.016,0.744-0.048s0.508-0.084,0.756-0.155c0.248-0.072,0.476-0.16,0.684-0.265
			s0.376-0.228,0.504-0.372c0.24-0.256,0.416-0.535,0.528-0.84c0.112-0.304,0.192-0.588,0.239-0.852
			c0.049-0.265,0.072-0.58,0.072-0.949L78.161,16.973z"/>
		<path class="st2" d="M92.681,20.789v0.264v0.24h-5.712v-0.24v-0.264H92.681z"/>
		<path class="st3" d="M102.713,14.549v16.176h-0.24h-0.264V13.518v-0.024v-0.216h0.407l4.44,8.688l4.439-8.688h0.385v0.216v0.024
			v17.207h-0.252h-0.252V14.525l-4.152,8.279h-0.336L102.713,14.549z M102.545,13.277h-0.024h-0.024h-0.023h-0.024h-0.024H102.4
			h-0.023H102.545z M111.545,13.277h0.023h0.023h0.024h0.024h0.023h0.024h0.024H111.545z"/>
		<path class="st3" d="M123.208,26.957c0,0.049,0,0.176,0,0.385c0,0.207-0.032,0.459-0.096,0.756
			c-0.064,0.296-0.165,0.611-0.3,0.947c-0.137,0.336-0.34,0.648-0.612,0.936c-0.32,0.32-0.772,0.564-1.356,0.732
			s-1.148,0.252-1.691,0.252c-0.545,0-1.104-0.084-1.68-0.252c-0.576-0.168-1.017-0.412-1.32-0.732
			c-0.272-0.287-0.477-0.607-0.612-0.959s-0.228-0.685-0.276-0.996c-0.047-0.313-0.072-0.58-0.072-0.805c0-0.224,0-0.359,0-0.408
			v-9.84c0-0.639,0.093-1.211,0.277-1.715c0.184-0.505,0.475-0.933,0.875-1.285c0.16-0.144,0.355-0.271,0.588-0.383
			c0.232-0.112,0.477-0.205,0.732-0.277c0.256-0.071,0.512-0.127,0.768-0.168c0.256-0.039,0.496-0.06,0.721-0.06
			c0.207,0,0.443,0.017,0.707,0.048c0.265,0.033,0.529,0.084,0.793,0.156s0.512,0.16,0.744,0.264
			c0.231,0.104,0.428,0.229,0.588,0.373c0.816,0.719,1.224,1.736,1.224,3.047V26.957z M122.704,16.973
			c0-0.56-0.072-1.039-0.216-1.439c-0.145-0.4-0.344-0.736-0.6-1.008c-0.145-0.16-0.333-0.301-0.564-0.42
			c-0.232-0.12-0.477-0.221-0.732-0.301s-0.512-0.135-0.768-0.168c-0.256-0.031-0.48-0.047-0.672-0.047
			c-0.369,0-0.756,0.043-1.164,0.131s-0.78,0.256-1.116,0.504c-0.336,0.249-0.612,0.593-0.828,1.033
			c-0.216,0.439-0.323,1.012-0.323,1.715v9.864c-0.017,0.4,0,0.744,0.047,1.032c0.049,0.288,0.129,0.592,0.24,0.912
			s0.288,0.607,0.528,0.863c0.256,0.273,0.64,0.477,1.151,0.613c0.512,0.135,1,0.203,1.465,0.203c0.24,0,0.488-0.016,0.744-0.048
			s0.508-0.084,0.756-0.155c0.248-0.072,0.476-0.16,0.684-0.265s0.376-0.228,0.504-0.372c0.24-0.256,0.416-0.535,0.528-0.84
			c0.112-0.304,0.192-0.588,0.239-0.852c0.049-0.265,0.072-0.58,0.072-0.949L122.704,16.973z"/>
		<path class="st3" d="M133.527,13.373h0.528l-3.528,17.256h-0.206h-0.046h-0.045h-0.207l-3.527-17.256h0.527l3.264,16.08
			L133.527,13.373z"/>
		<path class="st3" d="M138.688,30.725V13.277h0.252h0.252v17.447h-0.252H138.688z"/>
		<path class="st3" d="M144.447,14.549v16.176h-0.239h-0.265V13.518v-0.024v-0.216h0.408l4.44,8.688l4.439-8.688h0.385v0.216v0.024
			v17.207h-0.253h-0.252V14.525l-4.151,8.279h-0.336L144.447,14.549z M144.279,13.277h-0.023h-0.024h-0.023h-0.024h-0.023h-0.024
			h-0.024H144.279z M153.279,13.277h0.024h0.024h0.023h0.024h0.023h0.024h0.023H153.279z"/>
		<path class="st3" d="M158.319,30.725V13.277h0.252h0.252v17.447h-0.252H158.319z"/>
		<path class="st3" d="M170.751,30.27v0.216v0.239h-6.769v-0.239V13.541v-0.264h6.672v0.264v0.191h-6.168v9.072h4.824v0.24v0.217
			h-4.824v7.008H170.751z"/>
		<path class="st3" d="M175.671,30.725h-0.253h-0.252V13.518v-0.24h0.408l6.647,15.287c0.096,0.225,0.164,0.4,0.204,0.529
			c0.04,0.127,0.076,0.231,0.108,0.312V13.277h0.24h0.264v17.447h-0.434l-6.573-15.168c-0.032-0.08-0.101-0.243-0.204-0.492
			c-0.104-0.247-0.173-0.443-0.205-0.588L175.671,30.725z M175.502,13.277h-0.023h-0.024h-0.023h-0.024h-0.023h-0.024h-0.024
			H175.502z M182.87,30.725h-0.048h-0.048h-0.048h-0.024H182.87z"/>
		<path class="st3" d="M190.166,13.758h-3.983v-0.217v-0.24h8.399v0.24v0.24l0.024-0.023h-3.937v16.967h-0.264h-0.24V13.758z"/>
		<path class="st3" d="M205.166,26.957c0,0.049,0,0.176,0,0.385c0,0.207-0.032,0.459-0.096,0.756
			c-0.064,0.296-0.164,0.611-0.3,0.947c-0.137,0.336-0.341,0.648-0.612,0.936c-0.32,0.32-0.772,0.564-1.356,0.732
			s-1.147,0.252-1.691,0.252s-1.104-0.084-1.681-0.252c-0.575-0.168-1.016-0.412-1.319-0.732c-0.272-0.287-0.477-0.607-0.612-0.959
			s-0.228-0.685-0.276-0.996c-0.048-0.313-0.071-0.58-0.071-0.805c0-0.224,0-0.359,0-0.408v-9.84c0-0.639,0.092-1.211,0.275-1.715
			c0.184-0.505,0.477-0.933,0.876-1.285c0.16-0.144,0.356-0.271,0.588-0.383c0.232-0.112,0.477-0.205,0.732-0.277
			c0.256-0.071,0.512-0.127,0.768-0.168c0.256-0.039,0.496-0.06,0.721-0.06c0.207,0,0.443,0.017,0.708,0.048
			c0.264,0.033,0.527,0.084,0.792,0.156c0.264,0.072,0.512,0.16,0.744,0.264c0.231,0.104,0.428,0.229,0.588,0.373
			c0.815,0.719,1.224,1.736,1.224,3.047V26.957z M204.662,16.973c0-0.56-0.072-1.039-0.216-1.439
			c-0.145-0.4-0.345-0.736-0.601-1.008c-0.144-0.16-0.332-0.301-0.563-0.42c-0.232-0.12-0.477-0.221-0.732-0.301
			s-0.512-0.135-0.768-0.168c-0.256-0.031-0.48-0.047-0.672-0.047c-0.368,0-0.756,0.043-1.164,0.131s-0.78,0.256-1.116,0.504
			c-0.336,0.249-0.612,0.593-0.828,1.033c-0.216,0.439-0.324,1.012-0.324,1.715v9.864c-0.016,0.4,0,0.744,0.049,1.032
			c0.048,0.288,0.127,0.592,0.239,0.912s0.288,0.607,0.528,0.863c0.256,0.273,0.64,0.477,1.152,0.613
			c0.512,0.135,0.999,0.203,1.464,0.203c0.239,0,0.487-0.016,0.744-0.048c0.255-0.032,0.508-0.084,0.756-0.155
			c0.248-0.072,0.476-0.16,0.684-0.265s0.376-0.228,0.504-0.372c0.24-0.256,0.416-0.535,0.528-0.84
			c0.111-0.304,0.192-0.588,0.24-0.852c0.048-0.265,0.071-0.58,0.071-0.949L204.662,16.973z"/>
	</g>
</g>
</svg>