<!-- Generator: Adobe Illustrator 22.1.0, SVG Export Plug-In  -->
<svg version="1.1"
	 xmlns="http://www.w3.org/2000/svg" xmlns:xlink="http://www.w3.org/1999/xlink" xmlns:a="http://ns.adobe.com/AdobeSVGViewerExtensions/3.0/"
	 x="0px" y="0px" width="112px" height="43px" viewBox="0 0 112 43" style="enable-background:new 0 0 112 43;"
	 xml:space="preserve">
<style type="text/css">
	.st0{fill:#FFFFFF;}
	.st1{fill:#333333;}
	.st2{fill:#808080;}
</style>
<defs>
</defs>
<g>
	<rect class="st0" width="112" height="43"/>
	<g>
		<path class="st1" d="M12.576,10.35v9.436h-0.141h-0.154V9.747V9.732V9.607h0.238l2.59,5.068l2.59-5.068h0.225v0.125v0.015v10.038
			h-0.147h-0.147v-9.45l-2.422,4.83h-0.195L12.576,10.35z M12.478,9.607h-0.015h-0.014h-0.014h-0.014h-0.015h-0.014h-0.015H12.478z
			 M17.728,9.607h0.015h0.014h0.014h0.014h0.014h0.015h0.015H17.728z"/>
		<path class="st1" d="M24.531,17.587c0,0.028,0,0.103,0,0.224c0,0.122-0.019,0.27-0.056,0.441
			c-0.038,0.173-0.097,0.357-0.175,0.553c-0.08,0.196-0.199,0.379-0.357,0.547c-0.187,0.187-0.45,0.328-0.791,0.427
			c-0.341,0.098-0.67,0.147-0.986,0.147c-0.318,0-0.645-0.05-0.98-0.147c-0.336-0.099-0.593-0.24-0.77-0.427
			c-0.159-0.168-0.278-0.355-0.357-0.561c-0.08-0.205-0.133-0.398-0.161-0.581c-0.028-0.182-0.042-0.338-0.042-0.469s0-0.21,0-0.238
			v-5.739c0-0.373,0.054-0.707,0.161-1.002c0.106-0.293,0.277-0.543,0.511-0.748c0.094-0.084,0.207-0.159,0.344-0.225
			c0.135-0.064,0.277-0.119,0.426-0.161c0.15-0.042,0.299-0.074,0.449-0.098c0.148-0.023,0.289-0.035,0.42-0.035
			c0.121,0,0.258,0.009,0.412,0.028c0.154,0.019,0.309,0.049,0.463,0.091c0.153,0.042,0.298,0.093,0.434,0.153
			c0.135,0.062,0.25,0.134,0.343,0.218c0.476,0.42,0.714,1.013,0.714,1.778V17.587z M24.237,11.764c0-0.327-0.042-0.607-0.126-0.84
			c-0.084-0.234-0.201-0.43-0.35-0.589c-0.084-0.093-0.193-0.175-0.329-0.245s-0.278-0.128-0.427-0.175
			c-0.15-0.046-0.299-0.079-0.448-0.098s-0.28-0.028-0.392-0.028c-0.215,0-0.441,0.025-0.68,0.077s-0.455,0.149-0.65,0.294
			c-0.196,0.145-0.357,0.346-0.483,0.602c-0.126,0.258-0.188,0.591-0.188,1.002v5.754c-0.01,0.232,0,0.434,0.027,0.602
			s0.074,0.346,0.141,0.532c0.064,0.187,0.168,0.354,0.308,0.504c0.149,0.159,0.373,0.278,0.672,0.356
			c0.298,0.08,0.583,0.119,0.854,0.119c0.14,0,0.284-0.009,0.434-0.027c0.148-0.02,0.296-0.049,0.441-0.092
			c0.145-0.041,0.277-0.093,0.398-0.154c0.121-0.061,0.219-0.133,0.294-0.217c0.14-0.148,0.243-0.313,0.308-0.489
			c0.065-0.177,0.112-0.343,0.141-0.497c0.027-0.154,0.042-0.338,0.042-0.553L24.237,11.764z"/>
		<path class="st1" d="M30.551,9.663h0.309l-2.059,10.065h-0.119h-0.027h-0.027h-0.119L26.449,9.663h0.309l1.903,9.38L30.551,9.663z
			"/>
		<path class="st1" d="M33.561,19.785V9.607h0.147h0.147v10.178h-0.147H33.561z"/>
		<path class="st1" d="M36.921,10.35v9.436h-0.14h-0.154V9.747V9.732V9.607h0.238l2.59,5.068l2.59-5.068h0.224v0.125v0.015v10.038
			h-0.147h-0.146v-9.45l-2.422,4.83h-0.196L36.921,10.35z M36.822,9.607h-0.014h-0.014h-0.014h-0.015h-0.015h-0.014h-0.014H36.822z
			 M42.072,9.607h0.015h0.014h0.015h0.014h0.014h0.014h0.015H42.072z"/>
		<path class="st1" d="M45.013,19.785V9.607h0.147h0.146v10.178H45.16H45.013z"/>
		<path class="st1" d="M52.264,19.52v0.125v0.141h-3.947v-0.141V9.762V9.607h3.893v0.154v0.111H48.61v5.292h2.813v0.14v0.127H48.61
			v4.088H52.264z"/>
		<path class="st1" d="M55.135,19.785h-0.147H54.84V9.747v-0.14h0.238l3.877,8.918c0.057,0.131,0.097,0.233,0.12,0.308
			c0.023,0.075,0.044,0.136,0.063,0.183V9.607h0.14h0.154v10.178H59.18l-3.834-8.848c-0.02-0.047-0.059-0.143-0.12-0.287
			c-0.061-0.145-0.101-0.26-0.119-0.344L55.135,19.785z M55.037,9.607h-0.015h-0.015h-0.014H54.98h-0.014h-0.014h-0.015H55.037z
			 M59.334,19.785h-0.027h-0.028H59.25h-0.014H59.334z"/>
		<path class="st1" d="M63.59,9.887h-2.324V9.762V9.621h4.9v0.141v0.14l0.014-0.015h-2.295v9.898H63.73H63.59V9.887z"/>
		<path class="st1" d="M72.34,17.587c0,0.028,0,0.103,0,0.224c0,0.122-0.019,0.27-0.056,0.441c-0.038,0.173-0.097,0.357-0.175,0.553
			c-0.08,0.196-0.199,0.379-0.357,0.547c-0.187,0.187-0.45,0.328-0.791,0.427c-0.341,0.098-0.67,0.147-0.986,0.147
			c-0.318,0-0.645-0.05-0.98-0.147c-0.336-0.099-0.593-0.24-0.77-0.427c-0.159-0.168-0.278-0.355-0.357-0.561
			c-0.08-0.205-0.133-0.398-0.161-0.581c-0.028-0.182-0.042-0.338-0.042-0.469s0-0.21,0-0.238v-5.739
			c0-0.373,0.054-0.707,0.161-1.002c0.106-0.293,0.277-0.543,0.511-0.748c0.094-0.084,0.207-0.159,0.344-0.225
			c0.135-0.064,0.277-0.119,0.426-0.161c0.15-0.042,0.299-0.074,0.449-0.098c0.148-0.023,0.289-0.035,0.42-0.035
			c0.121,0,0.258,0.009,0.412,0.028c0.154,0.019,0.309,0.049,0.463,0.091c0.153,0.042,0.298,0.093,0.434,0.153
			c0.135,0.062,0.25,0.134,0.343,0.218c0.476,0.42,0.714,1.013,0.714,1.778V17.587z M72.046,11.764c0-0.327-0.042-0.607-0.126-0.84
			c-0.084-0.234-0.201-0.43-0.35-0.589c-0.084-0.093-0.193-0.175-0.329-0.245s-0.278-0.128-0.427-0.175
			c-0.15-0.046-0.299-0.079-0.448-0.098s-0.28-0.028-0.392-0.028c-0.215,0-0.441,0.025-0.68,0.077s-0.455,0.149-0.65,0.294
			c-0.196,0.145-0.357,0.346-0.483,0.602c-0.126,0.258-0.188,0.591-0.188,1.002v5.754c-0.01,0.232,0,0.434,0.027,0.602
			s0.074,0.346,0.141,0.532c0.064,0.187,0.168,0.354,0.308,0.504c0.149,0.159,0.373,0.278,0.672,0.356
			c0.298,0.08,0.583,0.119,0.854,0.119c0.14,0,0.284-0.009,0.434-0.027c0.148-0.02,0.296-0.049,0.441-0.092
			c0.145-0.041,0.277-0.093,0.398-0.154c0.121-0.061,0.219-0.133,0.294-0.217c0.14-0.148,0.243-0.313,0.308-0.489
			c0.065-0.177,0.112-0.343,0.141-0.497c0.027-0.154,0.042-0.338,0.042-0.553L72.046,11.764z"/>
		<path class="st1" d="M75.042,19.421c-0.233-0.205-0.409-0.48-0.525-0.825c-0.116-0.346-0.175-0.715-0.175-1.106h0.294
			c0,0.448,0.063,0.812,0.188,1.092c0.127,0.28,0.285,0.497,0.477,0.651s0.398,0.256,0.623,0.308s0.434,0.077,0.63,0.077
			c0.243,0,0.483-0.035,0.722-0.105c0.237-0.069,0.452-0.182,0.644-0.336c0.19-0.154,0.345-0.356,0.462-0.608
			c0.117-0.253,0.175-0.56,0.175-0.925c0-0.42-0.061-0.785-0.182-1.099c-0.122-0.313-0.282-0.59-0.483-0.833
			c-0.201-0.242-0.427-0.459-0.679-0.65s-0.509-0.381-0.771-0.567c-0.252-0.177-0.492-0.353-0.721-0.524
			c-0.229-0.174-0.436-0.367-0.623-0.582c-0.41-0.494-0.615-1.045-0.615-1.651c0-0.028,0-0.101,0-0.218
			c0-0.116,0.016-0.254,0.047-0.412c0.03-0.158,0.082-0.332,0.153-0.519s0.187-0.358,0.345-0.518
			C75.392,9.678,75.9,9.48,76.554,9.48c0.663,0,1.162,0.197,1.498,0.589c0.14,0.168,0.24,0.353,0.302,0.553
			c0.061,0.2,0.1,0.392,0.118,0.574c0.019,0.182,0.026,0.336,0.021,0.462c-0.004,0.126-0.006,0.193-0.006,0.203h-0.295
			c0.01-0.225,0.005-0.42-0.014-0.588s-0.054-0.344-0.105-0.525c-0.051-0.182-0.137-0.343-0.258-0.482
			c-0.141-0.159-0.313-0.28-0.519-0.364c-0.206-0.084-0.452-0.126-0.742-0.126c-0.569,0-1.003,0.163-1.302,0.49
			c-0.131,0.14-0.229,0.293-0.294,0.461s-0.112,0.325-0.14,0.47c-0.028,0.145-0.043,0.319-0.043,0.524
			c0,0.309,0.052,0.582,0.154,0.819c0.104,0.238,0.239,0.458,0.408,0.658c0.168,0.2,0.363,0.385,0.583,0.553
			s0.446,0.336,0.681,0.505c0.271,0.186,0.539,0.383,0.801,0.588c0.263,0.205,0.502,0.438,0.717,0.699
			c0.487,0.598,0.73,1.297,0.73,2.1c0,0.756-0.252,1.345-0.756,1.765c-0.41,0.336-0.924,0.504-1.54,0.504
			c-0.215,0-0.46-0.03-0.735-0.091S75.285,19.627,75.042,19.421z"/>
		<path class="st2" d="M16.705,34.316c0,0.02,0,0.09,0,0.211s-0.018,0.268-0.055,0.44c-0.038,0.173-0.096,0.356-0.176,0.554
			c-0.078,0.195-0.197,0.377-0.355,0.545c-0.354,0.383-0.852,0.574-1.492,0.574c-0.623,0-1.111-0.191-1.465-0.574
			c-0.158-0.168-0.277-0.354-0.356-0.56c-0.079-0.205-0.132-0.399-0.161-0.581c-0.027-0.182-0.041-0.338-0.041-0.469s0-0.21,0-0.238
			v-7.867h0.146h0.147v7.881v0.015c0,0.103,0,0.202,0,0.301s0.009,0.194,0.028,0.287c0.019,0.168,0.063,0.343,0.133,0.524
			c0.07,0.183,0.176,0.354,0.316,0.512c0.291,0.317,0.707,0.477,1.252,0.477c0.553,0,0.983-0.164,1.293-0.49
			c0.131-0.15,0.231-0.311,0.302-0.483s0.12-0.339,0.147-0.497c0.02-0.094,0.03-0.184,0.035-0.273
			c0.005-0.088,0.008-0.18,0.008-0.272v-0.015v-7.965h0.146h0.146V34.316z"/>
		<path class="st2" d="M19.688,36.585H19.54h-0.147V26.547v-0.141h0.238l3.877,8.918c0.057,0.131,0.097,0.234,0.12,0.309
			s0.044,0.136,0.063,0.182v-9.408h0.14h0.154v10.179h-0.253l-3.834-8.849c-0.02-0.046-0.059-0.142-0.12-0.287
			c-0.061-0.145-0.101-0.258-0.119-0.342L19.688,36.585z M19.59,26.406h-0.015h-0.015h-0.014h-0.014H19.52h-0.014h-0.015H19.59z
			 M23.887,36.585h-0.027h-0.028h-0.028h-0.014H23.887z"/>
		<path class="st2" d="M26.799,36.585V26.406h0.146h0.147v10.179h-0.147H26.799z"/>
		<path class="st2" d="M33.813,26.463h0.309l-2.059,10.066h-0.12h-0.026h-0.027h-0.12l-2.058-10.066h0.308l1.903,9.38L33.813,26.463
			z"/>
		<path class="st2" d="M40.602,36.318v0.127v0.14h-3.947v-0.14v-9.885v-0.154h3.893v0.154v0.112h-3.599v5.292h2.813v0.141v0.125
			h-2.813v4.088H40.602z"/>
		<path class="st2" d="M45.656,32.189c-0.103,0.018-0.208,0.029-0.314,0.035c-0.107,0.004-0.223,0.006-0.344,0.006h-1.316v4.354
			h-0.153h-0.14V26.574v-0.168h0.168h1.441c0.504,0,0.926,0.08,1.268,0.238c0.34,0.159,0.604,0.383,0.791,0.672
			c0.177,0.281,0.314,0.596,0.412,0.945c0.099,0.35,0.147,0.703,0.147,1.057c0,0.365-0.049,0.722-0.147,1.072
			c-0.098,0.35-0.235,0.66-0.412,0.93c-0.131,0.206-0.285,0.379-0.463,0.519c-0.177,0.14-0.4,0.238-0.672,0.294L45.656,32.189z
			 M46.805,31.165c0.158-0.253,0.284-0.54,0.377-0.863c0.094-0.323,0.141-0.653,0.141-0.989c0-0.328-0.047-0.653-0.141-0.977
			c-0.093-0.322-0.219-0.61-0.377-0.863c-0.159-0.243-0.388-0.433-0.687-0.568c-0.299-0.135-0.672-0.203-1.12-0.203h-1.316v5.236
			h1.316c0.541,0,0.938-0.068,1.19-0.204S46.646,31.408,46.805,31.165z M45.922,32.133l1.946,4.438h-0.308l-1.918-4.381
			L45.922,32.133z"/>
		<path class="st2" d="M50.584,36.221c-0.232-0.205-0.408-0.48-0.525-0.826c-0.116-0.345-0.174-0.713-0.174-1.105h0.293
			c0,0.447,0.063,0.813,0.189,1.092c0.126,0.28,0.285,0.497,0.477,0.65c0.191,0.154,0.398,0.258,0.623,0.309
			c0.224,0.051,0.434,0.077,0.629,0.077c0.243,0,0.483-0.035,0.722-0.104c0.237-0.07,0.452-0.183,0.644-0.336
			c0.191-0.154,0.346-0.357,0.463-0.609c0.116-0.252,0.174-0.561,0.174-0.924c0-0.42-0.061-0.787-0.182-1.1s-0.282-0.59-0.482-0.833
			c-0.201-0.242-0.428-0.46-0.68-0.651c-0.252-0.19-0.508-0.379-0.77-0.566c-0.252-0.178-0.492-0.352-0.721-0.525
			c-0.229-0.172-0.437-0.365-0.623-0.58c-0.411-0.495-0.616-1.046-0.616-1.652c0-0.028,0-0.101,0-0.217
			c0-0.117,0.016-0.254,0.047-0.414c0.03-0.158,0.083-0.33,0.153-0.518c0.072-0.187,0.188-0.359,0.346-0.518
			c0.363-0.393,0.873-0.588,1.525-0.588c0.663,0,1.162,0.195,1.498,0.588c0.141,0.168,0.24,0.352,0.302,0.553
			c0.061,0.201,0.101,0.393,0.118,0.574c0.02,0.182,0.026,0.336,0.021,0.462s-0.007,0.194-0.007,0.203h-0.294
			c0.01-0.224,0.004-0.421-0.014-0.589c-0.02-0.168-0.055-0.342-0.105-0.524s-0.138-0.343-0.259-0.483
			c-0.14-0.158-0.313-0.279-0.519-0.363s-0.452-0.127-0.742-0.127c-0.568,0-1.003,0.164-1.301,0.49
			c-0.131,0.141-0.229,0.295-0.295,0.463c-0.064,0.168-0.111,0.324-0.14,0.469s-0.042,0.32-0.042,0.525
			c0,0.308,0.051,0.58,0.154,0.818s0.238,0.457,0.408,0.658c0.168,0.201,0.362,0.385,0.582,0.553
			c0.221,0.168,0.447,0.336,0.682,0.504c0.271,0.188,0.539,0.383,0.801,0.588s0.501,0.439,0.717,0.7
			c0.486,0.598,0.73,1.298,0.73,2.101c0,0.756-0.252,1.344-0.756,1.764c-0.411,0.336-0.924,0.504-1.541,0.504
			c-0.215,0-0.459-0.03-0.734-0.091S50.827,36.426,50.584,36.221z"/>
		<path class="st2" d="M60.412,36.585h-0.309l-0.629-3.065h-2.437l-0.658,3.065h-0.308l2.058-10.179h0.238L60.412,36.585z
			 M59.391,33.225l-1.135-6.048l-1.176,6.048H59.391z M58.2,26.406h0.014h0.028h0.014h0.014h0.028H58.2z"/>
		<path class="st2" d="M62.876,36.585v-0.14V26.406h0.147h0.146v9.912h3.752v0.127v0.14H62.876z"/>
		<path class="st2" d="M73.838,36.318v0.127v0.14H69.89v-0.14v-9.885v-0.154h3.892v0.154v0.112h-3.598v5.292h2.814v0.141v0.125
			h-2.814v4.088H73.838z"/>
		<path class="st2" d="M76.945,36.221c-0.232-0.205-0.408-0.48-0.525-0.826c-0.116-0.345-0.174-0.713-0.174-1.105h0.293
			c0,0.447,0.063,0.813,0.189,1.092c0.126,0.28,0.285,0.497,0.477,0.65c0.191,0.154,0.398,0.258,0.623,0.309
			c0.224,0.051,0.434,0.077,0.629,0.077c0.243,0,0.483-0.035,0.722-0.104c0.237-0.07,0.452-0.183,0.644-0.336
			c0.191-0.154,0.346-0.357,0.463-0.609c0.116-0.252,0.174-0.561,0.174-0.924c0-0.42-0.061-0.787-0.182-1.1s-0.282-0.59-0.482-0.833
			c-0.201-0.242-0.428-0.46-0.68-0.651c-0.252-0.19-0.508-0.379-0.77-0.566c-0.252-0.178-0.492-0.352-0.721-0.525
			c-0.229-0.172-0.437-0.365-0.623-0.58c-0.411-0.495-0.616-1.046-0.616-1.652c0-0.028,0-0.101,0-0.217
			c0-0.117,0.016-0.254,0.047-0.414c0.03-0.158,0.083-0.33,0.153-0.518c0.072-0.187,0.188-0.359,0.346-0.518
			c0.363-0.393,0.873-0.588,1.525-0.588c0.663,0,1.162,0.195,1.498,0.588c0.141,0.168,0.24,0.352,0.302,0.553
			c0.061,0.201,0.101,0.393,0.118,0.574c0.02,0.182,0.026,0.336,0.021,0.462s-0.007,0.194-0.007,0.203h-0.294
			c0.01-0.224,0.004-0.421-0.014-0.589c-0.02-0.168-0.055-0.342-0.105-0.524s-0.138-0.343-0.259-0.483
			c-0.14-0.158-0.313-0.279-0.519-0.363s-0.452-0.127-0.742-0.127c-0.568,0-1.003,0.164-1.301,0.49
			c-0.131,0.141-0.229,0.295-0.295,0.463c-0.064,0.168-0.111,0.324-0.14,0.469s-0.042,0.32-0.042,0.525
			c0,0.308,0.051,0.58,0.154,0.818s0.238,0.457,0.408,0.658c0.168,0.201,0.362,0.385,0.582,0.553
			c0.221,0.168,0.447,0.336,0.682,0.504c0.271,0.188,0.539,0.383,0.801,0.588s0.501,0.439,0.717,0.7
			c0.486,0.598,0.73,1.298,0.73,2.101c0,0.756-0.252,1.344-0.756,1.764c-0.411,0.336-0.924,0.504-1.541,0.504
			c-0.215,0-0.459-0.03-0.734-0.091S77.188,36.426,76.945,36.221z"/>
	</g>
</g>
</svg>