<!-- Generator: Adobe Illustrator 22.1.0, SVG Export Plug-In  -->
<svg version="1.1"
	 xmlns="http://www.w3.org/2000/svg" xmlns:xlink="http://www.w3.org/1999/xlink" xmlns:a="http://ns.adobe.com/AdobeSVGViewerExtensions/3.0/"
	 x="0px" y="0px" width="112px" height="43px" viewBox="0 0 112 43" style="enable-background:new 0 0 112 43;"
	 xml:space="preserve">
<style type="text/css">
	.st0{fill:#FFFFFF;}
	.st1{fill:#333333;}
	.st2{fill:#808080;}
</style>
<defs>
</defs>
<g>
	<rect class="st0" width="112" height="43"/>
	<g>
		<path class="st1" d="M14.857,14.389c-0.103,0.02-0.208,0.031-0.314,0.035c-0.107,0.005-0.223,0.008-0.344,0.008h-1.316v4.354
			h-0.153h-0.14V8.775V8.607h0.168h1.441c0.504,0,0.926,0.079,1.268,0.238c0.34,0.158,0.604,0.383,0.791,0.672
			c0.177,0.279,0.314,0.595,0.412,0.944c0.099,0.351,0.147,0.702,0.147,1.058c0,0.363-0.049,0.721-0.147,1.07
			c-0.098,0.35-0.235,0.66-0.412,0.932c-0.131,0.205-0.285,0.377-0.463,0.518c-0.177,0.141-0.4,0.238-0.672,0.294L14.857,14.389z
			 M16.006,13.365c0.158-0.253,0.284-0.541,0.377-0.863c0.094-0.323,0.141-0.652,0.141-0.99c0-0.327-0.047-0.652-0.141-0.975
			c-0.093-0.323-0.219-0.611-0.377-0.863c-0.159-0.244-0.388-0.434-0.687-0.568c-0.299-0.137-0.672-0.204-1.12-0.204h-1.316v5.235
			h1.316c0.541,0,0.938-0.067,1.19-0.203S15.847,13.608,16.006,13.365z M15.123,14.333l1.946,4.438h-0.308l-1.918-4.383
			L15.123,14.333z"/>
		<path class="st1" d="M23.342,18.52v0.125v0.141h-3.948v-0.141V8.762V8.607h3.892v0.154v0.111h-3.598v5.292h2.814v0.14v0.127
			h-2.814v4.088H23.342z"/>
		<path class="st1" d="M30.09,16.461c0,0.01,0,0.082,0,0.217c0,0.136-0.017,0.301-0.049,0.498c-0.033,0.195-0.09,0.4-0.168,0.615
			c-0.08,0.215-0.199,0.406-0.357,0.574c-0.364,0.383-0.868,0.574-1.512,0.574c-0.645,0-1.135-0.191-1.471-0.574
			c-0.168-0.178-0.291-0.369-0.371-0.574c-0.079-0.205-0.133-0.398-0.16-0.581c-0.028-0.182-0.04-0.338-0.035-0.469
			c0.004-0.131,0.007-0.21,0.007-0.238v-5.754c0-0.747,0.224-1.33,0.672-1.75c0.177-0.159,0.386-0.284,0.623-0.378
			s0.483-0.141,0.735-0.141c0.504,0,0.961,0.168,1.371,0.505c0.234,0.196,0.414,0.464,0.539,0.805
			c0.127,0.341,0.189,0.712,0.189,1.113h-0.309c0-0.364-0.053-0.681-0.16-0.952c-0.107-0.271-0.248-0.492-0.42-0.665
			c-0.174-0.173-0.367-0.301-0.581-0.385c-0.215-0.084-0.425-0.126-0.63-0.126c-0.215,0-0.428,0.039-0.637,0.119
			c-0.211,0.079-0.397,0.198-0.561,0.356c-0.164,0.159-0.294,0.364-0.393,0.616c-0.098,0.252-0.146,0.546-0.146,0.882v5.769v0.014
			c0,0.233,0.012,0.432,0.035,0.595s0.07,0.339,0.14,0.525c0.07,0.187,0.175,0.354,0.315,0.504c0.299,0.327,0.714,0.489,1.246,0.489
			c0.551,0,0.979-0.162,1.287-0.489c0.141-0.149,0.246-0.319,0.315-0.511c0.07-0.191,0.119-0.376,0.147-0.553
			c0.027-0.178,0.041-0.388,0.041-0.631H30.09z"/>
		<path class="st1" d="M36.865,16.587c0,0.028,0,0.103,0,0.224c0,0.122-0.019,0.27-0.056,0.441
			c-0.038,0.173-0.097,0.357-0.175,0.553c-0.08,0.196-0.199,0.379-0.357,0.547c-0.187,0.187-0.45,0.328-0.791,0.427
			c-0.341,0.098-0.67,0.147-0.986,0.147c-0.318,0-0.645-0.05-0.98-0.147c-0.336-0.099-0.593-0.24-0.77-0.427
			c-0.159-0.168-0.278-0.355-0.357-0.561c-0.08-0.205-0.133-0.398-0.161-0.581c-0.028-0.182-0.042-0.338-0.042-0.469s0-0.21,0-0.238
			v-5.739c0-0.373,0.054-0.707,0.161-1.002c0.106-0.293,0.277-0.543,0.511-0.748c0.094-0.084,0.207-0.159,0.344-0.225
			c0.135-0.064,0.277-0.119,0.426-0.161c0.15-0.042,0.299-0.074,0.449-0.098c0.148-0.023,0.289-0.035,0.42-0.035
			c0.121,0,0.258,0.009,0.412,0.028c0.154,0.019,0.309,0.049,0.463,0.091c0.153,0.042,0.298,0.093,0.434,0.153
			c0.135,0.062,0.25,0.134,0.343,0.218c0.476,0.42,0.714,1.013,0.714,1.778V16.587z M36.571,10.764c0-0.327-0.042-0.607-0.126-0.84
			c-0.084-0.234-0.201-0.43-0.35-0.589c-0.084-0.093-0.193-0.175-0.329-0.245s-0.278-0.128-0.427-0.175
			c-0.15-0.046-0.299-0.079-0.448-0.098s-0.28-0.028-0.392-0.028c-0.215,0-0.441,0.025-0.68,0.077s-0.455,0.149-0.65,0.294
			c-0.196,0.145-0.357,0.346-0.483,0.602c-0.126,0.258-0.188,0.591-0.188,1.002v5.754c-0.01,0.232,0,0.434,0.027,0.602
			s0.074,0.346,0.141,0.532c0.064,0.187,0.168,0.354,0.308,0.504c0.149,0.159,0.373,0.278,0.672,0.356
			c0.298,0.08,0.583,0.119,0.854,0.119c0.14,0,0.284-0.009,0.434-0.027c0.148-0.02,0.296-0.049,0.441-0.092
			c0.145-0.041,0.277-0.093,0.398-0.154c0.121-0.061,0.219-0.133,0.294-0.217c0.14-0.148,0.243-0.313,0.308-0.489
			c0.065-0.177,0.112-0.343,0.141-0.497c0.027-0.154,0.042-0.338,0.042-0.553L36.571,10.764z"/>
		<path class="st1" d="M39.329,18.785h-0.147h-0.146V8.747v-0.14h0.238l3.877,8.918c0.057,0.131,0.096,0.233,0.119,0.308
			c0.023,0.075,0.045,0.136,0.063,0.183V8.607h0.14h0.154v10.178h-0.252L39.54,9.938c-0.019-0.047-0.059-0.143-0.12-0.287
			c-0.061-0.145-0.1-0.26-0.119-0.344L39.329,18.785z M39.231,8.607h-0.015h-0.014h-0.014h-0.014h-0.015h-0.014h-0.015H39.231z
			 M43.529,18.785h-0.027h-0.029h-0.027h-0.014H43.529z"/>
		<path class="st1" d="M50.305,16.587c0,0.028,0,0.103,0,0.224c0,0.122-0.019,0.27-0.056,0.441
			c-0.038,0.173-0.097,0.357-0.175,0.553c-0.08,0.196-0.199,0.379-0.357,0.547c-0.187,0.187-0.45,0.328-0.791,0.427
			c-0.341,0.098-0.67,0.147-0.986,0.147c-0.318,0-0.645-0.05-0.98-0.147c-0.336-0.099-0.593-0.24-0.77-0.427
			c-0.159-0.168-0.278-0.355-0.357-0.561c-0.08-0.205-0.133-0.398-0.161-0.581c-0.028-0.182-0.042-0.338-0.042-0.469s0-0.21,0-0.238
			v-5.739c0-0.373,0.054-0.707,0.161-1.002c0.106-0.293,0.277-0.543,0.511-0.748c0.094-0.084,0.207-0.159,0.344-0.225
			c0.135-0.064,0.277-0.119,0.426-0.161c0.15-0.042,0.299-0.074,0.449-0.098c0.148-0.023,0.289-0.035,0.42-0.035
			c0.121,0,0.258,0.009,0.412,0.028c0.154,0.019,0.309,0.049,0.463,0.091c0.153,0.042,0.298,0.093,0.434,0.153
			c0.135,0.062,0.25,0.134,0.343,0.218c0.476,0.42,0.714,1.013,0.714,1.778V16.587z M50.011,10.764c0-0.327-0.042-0.607-0.126-0.84
			c-0.084-0.234-0.201-0.43-0.35-0.589c-0.084-0.093-0.193-0.175-0.329-0.245s-0.278-0.128-0.427-0.175
			c-0.15-0.046-0.299-0.079-0.448-0.098s-0.28-0.028-0.392-0.028c-0.215,0-0.441,0.025-0.68,0.077s-0.455,0.149-0.65,0.294
			c-0.196,0.145-0.357,0.346-0.483,0.602c-0.126,0.258-0.188,0.591-0.188,1.002v5.754c-0.01,0.232,0,0.434,0.027,0.602
			s0.074,0.346,0.141,0.532c0.064,0.187,0.168,0.354,0.308,0.504c0.149,0.159,0.373,0.278,0.672,0.356
			c0.298,0.08,0.583,0.119,0.854,0.119c0.14,0,0.284-0.009,0.434-0.027c0.148-0.02,0.296-0.049,0.441-0.092
			c0.145-0.041,0.277-0.093,0.398-0.154c0.121-0.061,0.219-0.133,0.294-0.217c0.14-0.148,0.243-0.313,0.308-0.489
			c0.065-0.177,0.112-0.343,0.141-0.497c0.027-0.154,0.042-0.338,0.042-0.553L50.011,10.764z"/>
		<path class="st1" d="M56.646,16.461c0,0.01,0,0.082,0,0.217c0,0.136-0.016,0.301-0.049,0.498c-0.033,0.195-0.089,0.4-0.168,0.615
			c-0.08,0.215-0.198,0.406-0.357,0.574c-0.363,0.383-0.867,0.574-1.512,0.574s-1.134-0.191-1.47-0.574
			c-0.168-0.178-0.292-0.369-0.371-0.574s-0.133-0.398-0.161-0.581c-0.027-0.182-0.039-0.338-0.035-0.469
			c0.005-0.131,0.008-0.21,0.008-0.238v-5.754c0-0.747,0.224-1.33,0.672-1.75c0.177-0.159,0.385-0.284,0.623-0.378
			c0.237-0.094,0.482-0.141,0.734-0.141c0.504,0,0.961,0.168,1.372,0.505c0.233,0.196,0.413,0.464,0.539,0.805
			s0.188,0.712,0.188,1.113h-0.308c0-0.364-0.054-0.681-0.161-0.952c-0.107-0.271-0.247-0.492-0.42-0.665s-0.366-0.301-0.58-0.385
			c-0.215-0.084-0.426-0.126-0.631-0.126c-0.215,0-0.427,0.039-0.637,0.119c-0.21,0.079-0.396,0.198-0.561,0.356
			C53.2,9.41,53.07,9.615,52.972,9.867s-0.147,0.546-0.147,0.882v5.769v0.014c0,0.233,0.012,0.432,0.035,0.595
			s0.07,0.339,0.141,0.525s0.175,0.354,0.314,0.504c0.299,0.327,0.715,0.489,1.246,0.489c0.551,0,0.98-0.162,1.288-0.489
			c0.14-0.149,0.245-0.319,0.315-0.511s0.119-0.376,0.146-0.553c0.028-0.178,0.042-0.388,0.042-0.631H56.646z"/>
		<path class="st1" d="M59.559,18.785V8.607h0.146h0.147v10.178h-0.147H59.559z"/>
		<path class="st1" d="M62.919,9.35v9.436h-0.14h-0.154V8.747V8.732V8.607h0.238l2.59,5.068l2.59-5.068h0.224v0.125v0.015v10.038
			h-0.147h-0.146v-9.45l-2.422,4.83h-0.196L62.919,9.35z M62.82,8.607h-0.014h-0.014h-0.014h-0.015H62.75h-0.014h-0.014H62.82z
			 M68.07,8.607h0.015h0.014h0.015h0.014h0.014h0.014h0.015H68.07z"/>
		<path class="st1" d="M71.01,18.785V8.607h0.147h0.147v10.178h-0.147H71.01z"/>
		<path class="st1" d="M78.262,18.52v0.125v0.141h-3.947v-0.141V8.762V8.607h3.893v0.154v0.111h-3.599v5.292h2.813v0.14v0.127
			h-2.813v4.088H78.262z"/>
		<path class="st1" d="M81.132,18.785h-0.147h-0.146V8.747v-0.14h0.238l3.877,8.918c0.057,0.131,0.096,0.233,0.119,0.308
			c0.023,0.075,0.045,0.136,0.063,0.183V8.607h0.14h0.154v10.178h-0.252l-3.835-8.848c-0.019-0.047-0.059-0.143-0.12-0.287
			c-0.061-0.145-0.1-0.26-0.119-0.344L81.132,18.785z M81.034,8.607H81.02h-0.014h-0.014h-0.014h-0.015H80.95h-0.015H81.034z
			 M85.332,18.785h-0.027h-0.029h-0.027h-0.014H85.332z"/>
		<path class="st1" d="M89.588,8.887h-2.324V8.762V8.621h4.9v0.141v0.14l0.014-0.015h-2.295v9.898h-0.154h-0.141V8.887z"/>
		<path class="st1" d="M98.338,16.587c0,0.028,0,0.103,0,0.224c0,0.122-0.019,0.27-0.056,0.441
			c-0.038,0.173-0.097,0.357-0.175,0.553c-0.08,0.196-0.199,0.379-0.357,0.547c-0.187,0.187-0.45,0.328-0.791,0.427
			c-0.341,0.098-0.67,0.147-0.986,0.147c-0.318,0-0.645-0.05-0.98-0.147c-0.336-0.099-0.593-0.24-0.77-0.427
			c-0.159-0.168-0.278-0.355-0.357-0.561c-0.08-0.205-0.133-0.398-0.161-0.581c-0.028-0.182-0.042-0.338-0.042-0.469s0-0.21,0-0.238
			v-5.739c0-0.373,0.054-0.707,0.161-1.002c0.106-0.293,0.277-0.543,0.511-0.748c0.094-0.084,0.207-0.159,0.344-0.225
			c0.135-0.064,0.277-0.119,0.426-0.161c0.15-0.042,0.299-0.074,0.449-0.098c0.148-0.023,0.289-0.035,0.42-0.035
			c0.121,0,0.258,0.009,0.412,0.028c0.154,0.019,0.309,0.049,0.463,0.091c0.153,0.042,0.298,0.093,0.434,0.153
			c0.135,0.062,0.25,0.134,0.343,0.218c0.476,0.42,0.714,1.013,0.714,1.778V16.587z M98.044,10.764c0-0.327-0.042-0.607-0.126-0.84
			c-0.084-0.234-0.201-0.43-0.35-0.589c-0.084-0.093-0.193-0.175-0.329-0.245s-0.278-0.128-0.427-0.175
			c-0.15-0.046-0.299-0.079-0.448-0.098s-0.28-0.028-0.392-0.028c-0.215,0-0.441,0.025-0.68,0.077s-0.455,0.149-0.65,0.294
			c-0.196,0.145-0.357,0.346-0.483,0.602c-0.126,0.258-0.188,0.591-0.188,1.002v5.754c-0.01,0.232,0,0.434,0.027,0.602
			s0.074,0.346,0.141,0.532c0.064,0.187,0.168,0.354,0.308,0.504c0.149,0.159,0.373,0.278,0.672,0.356
			c0.298,0.08,0.583,0.119,0.854,0.119c0.14,0,0.284-0.009,0.434-0.027c0.148-0.02,0.296-0.049,0.441-0.092
			c0.145-0.041,0.277-0.093,0.398-0.154c0.121-0.061,0.219-0.133,0.294-0.217c0.14-0.148,0.243-0.313,0.308-0.489
			c0.065-0.177,0.112-0.343,0.141-0.497c0.027-0.154,0.042-0.338,0.042-0.553L98.044,10.764z"/>
		<path class="st2" d="M16.551,33.261c0,0.01,0,0.082,0,0.218c0,0.135-0.016,0.301-0.049,0.496
			c-0.032,0.196-0.088,0.402-0.168,0.616c-0.079,0.215-0.197,0.406-0.356,0.574c-0.364,0.383-0.868,0.573-1.513,0.573
			c-0.644,0-1.133-0.19-1.469-0.573c-0.168-0.177-0.293-0.368-0.371-0.574c-0.08-0.205-0.133-0.399-0.162-0.581
			c-0.027-0.182-0.039-0.338-0.034-0.469s0.007-0.21,0.007-0.238v-5.754c0-0.746,0.225-1.33,0.672-1.75
			c0.178-0.158,0.385-0.285,0.623-0.378s0.482-0.14,0.734-0.14c0.504,0,0.962,0.168,1.373,0.504
			c0.232,0.195,0.412,0.465,0.539,0.805c0.125,0.341,0.188,0.712,0.188,1.113h-0.308c0-0.364-0.055-0.682-0.161-0.952
			c-0.107-0.271-0.247-0.492-0.421-0.665c-0.172-0.172-0.365-0.301-0.58-0.385s-0.425-0.127-0.631-0.127
			c-0.215,0-0.426,0.041-0.637,0.119c-0.209,0.08-0.396,0.199-0.56,0.357c-0.163,0.159-0.294,0.364-0.392,0.616
			c-0.099,0.252-0.147,0.546-0.147,0.882v5.768v0.015c0,0.233,0.012,0.432,0.035,0.595c0.022,0.164,0.069,0.338,0.14,0.525
			c0.07,0.187,0.176,0.354,0.314,0.504c0.299,0.326,0.715,0.49,1.246,0.49c0.551,0,0.98-0.164,1.289-0.49
			c0.14-0.149,0.244-0.32,0.314-0.512c0.07-0.19,0.119-0.375,0.146-0.553c0.029-0.177,0.043-0.387,0.043-0.63H16.551z"/>
		<path class="st2" d="M23.327,33.387c0,0.028,0,0.104,0,0.225s-0.019,0.268-0.056,0.44s-0.096,0.357-0.176,0.554
			c-0.078,0.195-0.197,0.377-0.356,0.545c-0.187,0.188-0.45,0.33-0.791,0.428s-0.67,0.146-0.987,0.146
			c-0.316,0-0.644-0.049-0.979-0.146s-0.593-0.24-0.771-0.428c-0.158-0.168-0.277-0.354-0.356-0.56
			c-0.079-0.205-0.134-0.399-0.161-0.581s-0.042-0.338-0.042-0.469s0-0.21,0-0.238v-5.74c0-0.373,0.054-0.707,0.161-1
			c0.107-0.295,0.277-0.544,0.511-0.75c0.093-0.084,0.208-0.158,0.343-0.224c0.136-0.065,0.277-0.119,0.428-0.161
			c0.148-0.042,0.299-0.074,0.447-0.098c0.149-0.023,0.289-0.035,0.42-0.035c0.121,0,0.26,0.01,0.414,0.027
			c0.153,0.02,0.307,0.05,0.461,0.092s0.299,0.094,0.435,0.154s0.249,0.133,0.343,0.217c0.477,0.42,0.714,1.013,0.714,1.777V33.387z
			 M23.033,27.563c0-0.326-0.042-0.605-0.126-0.84c-0.084-0.232-0.2-0.429-0.351-0.588c-0.084-0.093-0.193-0.175-0.328-0.244
			c-0.136-0.07-0.277-0.129-0.428-0.176c-0.148-0.047-0.299-0.079-0.447-0.098c-0.149-0.02-0.28-0.028-0.393-0.028
			c-0.215,0-0.44,0.026-0.679,0.077c-0.237,0.051-0.455,0.149-0.651,0.294c-0.195,0.146-0.356,0.345-0.482,0.603
			c-0.126,0.256-0.189,0.59-0.189,1v5.754c-0.01,0.234,0,0.435,0.028,0.603s0.075,0.345,0.14,0.532
			c0.065,0.187,0.168,0.354,0.309,0.504c0.148,0.158,0.373,0.277,0.672,0.357c0.299,0.078,0.583,0.119,0.854,0.119
			c0.141,0,0.285-0.01,0.435-0.029c0.149-0.018,0.296-0.049,0.44-0.09c0.145-0.043,0.277-0.094,0.399-0.154
			c0.121-0.061,0.22-0.133,0.294-0.217c0.141-0.149,0.242-0.313,0.309-0.49c0.064-0.178,0.111-0.344,0.14-0.497
			c0.028-0.154,0.042-0.339,0.042-0.554L23.033,27.563z"/>
		<path class="st2" d="M27.975,31.189c-0.102,0.018-0.207,0.029-0.314,0.035c-0.107,0.004-0.222,0.006-0.343,0.006h-1.316v4.354
			h-0.153h-0.141V25.574v-0.168h0.168h1.442c0.504,0,0.926,0.08,1.267,0.238c0.341,0.159,0.604,0.383,0.791,0.672
			c0.178,0.281,0.314,0.596,0.413,0.945s0.147,0.703,0.147,1.057c0,0.365-0.049,0.722-0.147,1.072
			c-0.099,0.35-0.235,0.66-0.413,0.93c-0.131,0.206-0.285,0.379-0.462,0.519s-0.401,0.238-0.672,0.294L27.975,31.189z
			 M29.123,30.165c0.158-0.253,0.285-0.54,0.378-0.863s0.14-0.653,0.14-0.989c0-0.328-0.047-0.653-0.14-0.977
			c-0.093-0.322-0.22-0.61-0.378-0.863c-0.158-0.243-0.387-0.433-0.686-0.568c-0.299-0.135-0.672-0.203-1.12-0.203h-1.316v5.236
			h1.316c0.541,0,0.938-0.068,1.19-0.204S28.965,30.408,29.123,30.165z M28.241,31.133l1.946,4.438h-0.309l-1.918-4.381
			L28.241,31.133z"/>
		<path class="st2" d="M35.969,26.316c0.178,0.281,0.315,0.596,0.414,0.945c0.098,0.35,0.146,0.703,0.146,1.057
			c0,0.365-0.049,0.722-0.146,1.072c-0.099,0.35-0.236,0.66-0.414,0.93c-0.195,0.299-0.447,0.525-0.756,0.68
			c-0.308,0.154-0.742,0.23-1.302,0.23h-1.315v4.354h-0.154h-0.141V25.574v-0.168h0.168h1.442c0.504,0,0.927,0.08,1.267,0.238
			C35.519,25.804,35.782,26.027,35.969,26.316z M35.717,30.165c0.159-0.253,0.285-0.54,0.379-0.863
			c0.093-0.323,0.14-0.653,0.14-0.989c0-0.328-0.047-0.653-0.14-0.977c-0.094-0.322-0.22-0.61-0.379-0.863
			c-0.158-0.243-0.387-0.433-0.686-0.568c-0.299-0.135-0.672-0.203-1.12-0.203h-1.315v5.236h1.315c0.541,0,0.938-0.068,1.19-0.204
			S35.559,30.408,35.717,30.165z"/>
		<path class="st2" d="M43.18,33.387c0,0.028,0,0.104,0,0.225s-0.02,0.268-0.057,0.44s-0.096,0.357-0.175,0.554
			c-0.079,0.195-0.198,0.377-0.356,0.545c-0.188,0.188-0.451,0.33-0.791,0.428c-0.342,0.098-0.67,0.146-0.987,0.146
			s-0.644-0.049-0.979-0.146s-0.594-0.24-0.771-0.428c-0.159-0.168-0.278-0.354-0.356-0.56c-0.08-0.205-0.134-0.399-0.162-0.581
			c-0.027-0.182-0.041-0.338-0.041-0.469s0-0.21,0-0.238v-5.74c0-0.373,0.053-0.707,0.16-1c0.107-0.295,0.277-0.544,0.512-0.75
			c0.093-0.084,0.207-0.158,0.343-0.224s0.277-0.119,0.427-0.161s0.299-0.074,0.448-0.098s0.289-0.035,0.42-0.035
			c0.121,0,0.259,0.01,0.413,0.027c0.154,0.02,0.308,0.05,0.462,0.092c0.153,0.042,0.298,0.094,0.435,0.154
			c0.135,0.061,0.249,0.133,0.342,0.217c0.477,0.42,0.715,1.013,0.715,1.777V33.387z M42.885,27.563c0-0.326-0.041-0.605-0.125-0.84
			c-0.084-0.232-0.201-0.429-0.351-0.588c-0.084-0.093-0.193-0.175-0.329-0.244c-0.135-0.07-0.277-0.129-0.427-0.176
			s-0.299-0.079-0.448-0.098c-0.148-0.02-0.279-0.028-0.392-0.028c-0.215,0-0.44,0.026-0.679,0.077s-0.455,0.149-0.651,0.294
			c-0.196,0.146-0.356,0.345-0.483,0.603c-0.125,0.256-0.188,0.59-0.188,1v5.754c-0.01,0.234,0,0.435,0.028,0.603
			c0.027,0.168,0.074,0.345,0.14,0.532c0.065,0.187,0.168,0.354,0.308,0.504c0.149,0.158,0.373,0.277,0.672,0.357
			c0.299,0.078,0.584,0.119,0.854,0.119c0.14,0,0.284-0.01,0.435-0.029c0.148-0.018,0.295-0.049,0.44-0.09
			c0.145-0.043,0.277-0.094,0.399-0.154c0.121-0.061,0.219-0.133,0.293-0.217c0.141-0.149,0.243-0.313,0.309-0.49
			c0.064-0.178,0.111-0.344,0.141-0.497c0.027-0.154,0.041-0.339,0.041-0.554L42.885,27.563z"/>
		<path class="st2" d="M47.827,31.189c-0.103,0.018-0.208,0.029-0.315,0.035c-0.107,0.004-0.221,0.006-0.342,0.006h-1.316v4.354
			h-0.154h-0.141V25.574v-0.168h0.168h1.443c0.504,0,0.926,0.08,1.266,0.238c0.342,0.159,0.605,0.383,0.791,0.672
			c0.178,0.281,0.315,0.596,0.414,0.945c0.098,0.35,0.146,0.703,0.146,1.057c0,0.365-0.049,0.722-0.146,1.072
			c-0.099,0.35-0.236,0.66-0.414,0.93c-0.131,0.206-0.284,0.379-0.461,0.519c-0.178,0.14-0.402,0.238-0.672,0.294L47.827,31.189z
			 M48.975,30.165c0.159-0.253,0.285-0.54,0.379-0.863c0.093-0.323,0.14-0.653,0.14-0.989c0-0.328-0.047-0.653-0.14-0.977
			c-0.094-0.322-0.22-0.61-0.379-0.863c-0.158-0.243-0.387-0.433-0.686-0.568c-0.299-0.135-0.672-0.203-1.119-0.203h-1.316v5.236
			h1.316c0.541,0,0.938-0.068,1.189-0.204S48.816,30.408,48.975,30.165z M48.094,31.133l1.945,4.438H49.73l-1.918-4.381
			L48.094,31.133z"/>
		<path class="st2" d="M56.031,35.585h-0.309l-0.63-3.065h-2.437l-0.658,3.065h-0.307l2.057-10.179h0.238L56.031,35.585z
			 M55.009,32.225l-1.134-6.048l-1.176,6.048H55.009z M53.818,25.406h0.014h0.029h0.014h0.014h0.027H53.818z"/>
		<path class="st2" d="M58.494,35.585v-0.14V25.406h0.147h0.147v9.912h3.752v0.127v0.14H58.494z"/>
	</g>
</g>
</svg>