<!-- Generator: Adobe Illustrator 22.1.0, SVG Export Plug-In  -->
<svg version="1.1"
	 xmlns="http://www.w3.org/2000/svg" xmlns:xlink="http://www.w3.org/1999/xlink" xmlns:a="http://ns.adobe.com/AdobeSVGViewerExtensions/3.0/"
	 x="0px" y="0px" width="112px" height="43px" viewBox="0 0 112 43" style="enable-background:new 0 0 112 43;"
	 xml:space="preserve">
<style type="text/css">
	.st0{fill:#FFFFFF;}
	.st1{fill:#333333;}
</style>
<defs>
</defs>
<g>
	<rect class="st0" width="112" height="43"/>
	<g>
		<g>
			<path class="st1" d="M45.662,21.332v-0.293l1.834,0.014v2.527c0,0.028-0.003,0.104-0.008,0.225
				c-0.004,0.122-0.023,0.268-0.056,0.436c-0.033,0.168-0.091,0.352-0.175,0.548s-0.201,0.379-0.351,0.548
				c-0.364,0.393-0.863,0.59-1.497,0.59c-0.645,0-1.135-0.191-1.471-0.574c-0.168-0.178-0.292-0.369-0.371-0.574
				s-0.133-0.399-0.161-0.581c-0.028-0.183-0.04-0.339-0.034-0.47c0.004-0.13,0.006-0.209,0.006-0.237v-5.754
				c0-0.747,0.225-1.33,0.672-1.75c0.178-0.159,0.386-0.284,0.623-0.378c0.238-0.094,0.483-0.141,0.736-0.141
				c0.232,0,0.469,0.045,0.707,0.134c0.237,0.089,0.454,0.233,0.65,0.435c0.195,0.2,0.354,0.451,0.477,0.755
				c0.121,0.304,0.182,0.665,0.182,1.085h-0.295c0-0.363-0.051-0.679-0.153-0.945c-0.103-0.266-0.235-0.484-0.399-0.658
				c-0.163-0.172-0.348-0.301-0.553-0.385s-0.41-0.125-0.615-0.125c-0.215,0-0.428,0.037-0.638,0.111
				c-0.21,0.075-0.397,0.194-0.56,0.357c-0.164,0.164-0.295,0.369-0.393,0.617s-0.146,0.54-0.146,0.877V23.5v0.014
				c0,0.234,0.012,0.434,0.035,0.597c0.022,0.163,0.069,0.339,0.14,0.525c0.069,0.187,0.175,0.354,0.315,0.505
				c0.298,0.327,0.713,0.49,1.246,0.49c0.55,0,0.979-0.163,1.287-0.49c0.141-0.148,0.245-0.313,0.315-0.489
				c0.069-0.177,0.118-0.343,0.147-0.497c0.027-0.154,0.041-0.338,0.041-0.553v-0.015l-0.014-2.239L45.662,21.332z"/>
			<path class="st1" d="M50.365,25.785V15.607h0.146h0.147v10.178h-0.147H50.365z"/>
			<path class="st1" d="M56.007,21.389c-0.103,0.02-0.208,0.031-0.315,0.035c-0.107,0.005-0.221,0.008-0.342,0.008h-1.316v4.354
				h-0.154h-0.141v-10.01v-0.168h0.168h1.443c0.504,0,0.926,0.079,1.266,0.238c0.342,0.158,0.605,0.383,0.791,0.672
				c0.178,0.279,0.315,0.595,0.414,0.944c0.098,0.351,0.146,0.702,0.146,1.058c0,0.363-0.049,0.721-0.146,1.07
				c-0.099,0.35-0.236,0.66-0.414,0.932c-0.131,0.205-0.284,0.377-0.461,0.518c-0.178,0.141-0.402,0.238-0.672,0.294L56.007,21.389z
				 M57.154,20.365c0.159-0.253,0.285-0.541,0.379-0.863c0.093-0.323,0.14-0.652,0.14-0.99c0-0.327-0.047-0.652-0.14-0.975
				c-0.094-0.323-0.22-0.611-0.379-0.863c-0.158-0.244-0.387-0.434-0.686-0.568c-0.299-0.137-0.672-0.204-1.119-0.204h-1.316v5.235
				h1.316c0.541,0,0.938-0.067,1.189-0.203S56.996,20.608,57.154,20.365z M56.273,21.333l1.945,4.438H57.91l-1.918-4.383
				L56.273,21.333z"/>
			<path class="st1" d="M64.574,23.587c0,0.028,0,0.103,0,0.224c0,0.122-0.018,0.27-0.055,0.441
				c-0.038,0.173-0.097,0.357-0.176,0.553c-0.079,0.196-0.198,0.379-0.357,0.547c-0.186,0.187-0.449,0.328-0.791,0.427
				c-0.34,0.098-0.67,0.147-0.986,0.147c-0.317,0-0.645-0.05-0.98-0.147c-0.336-0.099-0.592-0.24-0.77-0.427
				c-0.158-0.168-0.277-0.355-0.357-0.561c-0.079-0.205-0.133-0.398-0.16-0.581c-0.028-0.182-0.043-0.338-0.043-0.469
				s0-0.21,0-0.238v-5.739c0-0.373,0.055-0.707,0.162-1.002c0.106-0.293,0.277-0.543,0.51-0.748
				c0.094-0.084,0.208-0.159,0.344-0.225c0.135-0.064,0.277-0.119,0.427-0.161s0.299-0.074,0.448-0.098
				c0.148-0.023,0.289-0.035,0.42-0.035c0.121,0,0.259,0.009,0.413,0.028c0.153,0.019,0.308,0.049,0.462,0.091
				s0.299,0.093,0.434,0.153c0.136,0.062,0.25,0.134,0.344,0.218c0.476,0.42,0.713,1.013,0.713,1.778V23.587z M64.281,17.764
				c0-0.327-0.043-0.607-0.127-0.84c-0.084-0.234-0.2-0.43-0.35-0.589c-0.084-0.093-0.193-0.175-0.328-0.245
				c-0.137-0.07-0.278-0.128-0.428-0.175c-0.149-0.046-0.299-0.079-0.447-0.098c-0.15-0.019-0.281-0.028-0.393-0.028
				c-0.215,0-0.441,0.025-0.68,0.077c-0.237,0.052-0.455,0.149-0.65,0.294s-0.357,0.346-0.482,0.602
				c-0.127,0.258-0.189,0.591-0.189,1.002v5.754c-0.01,0.232,0,0.434,0.027,0.602c0.028,0.168,0.075,0.346,0.141,0.532
				c0.064,0.187,0.168,0.354,0.309,0.504c0.148,0.159,0.373,0.278,0.672,0.356c0.298,0.08,0.582,0.119,0.854,0.119
				c0.141,0,0.285-0.009,0.434-0.027c0.149-0.02,0.297-0.049,0.441-0.092c0.145-0.041,0.277-0.093,0.398-0.154
				c0.121-0.061,0.22-0.133,0.295-0.217c0.14-0.148,0.242-0.313,0.308-0.489s0.112-0.343,0.14-0.497
				c0.028-0.154,0.043-0.338,0.043-0.553L64.281,17.764z"/>
			<path class="st1" d="M67.277,25.421c-0.234-0.205-0.409-0.48-0.525-0.825c-0.117-0.346-0.176-0.715-0.176-1.106h0.295
				c0,0.448,0.063,0.812,0.188,1.092s0.284,0.497,0.476,0.651s0.399,0.256,0.623,0.308c0.225,0.052,0.435,0.077,0.631,0.077
				c0.242,0,0.482-0.035,0.721-0.105c0.238-0.069,0.453-0.182,0.645-0.336c0.19-0.154,0.345-0.356,0.461-0.608
				c0.117-0.253,0.176-0.56,0.176-0.925c0-0.42-0.061-0.785-0.182-1.099c-0.122-0.313-0.283-0.59-0.484-0.833
				c-0.2-0.242-0.426-0.459-0.678-0.65s-0.51-0.381-0.771-0.567c-0.252-0.177-0.493-0.353-0.722-0.524
				c-0.229-0.174-0.436-0.367-0.623-0.582c-0.41-0.494-0.615-1.045-0.615-1.651c0-0.028,0-0.101,0-0.218
				c0-0.116,0.016-0.254,0.047-0.412s0.082-0.332,0.154-0.519c0.07-0.187,0.186-0.358,0.345-0.518
				c0.364-0.392,0.872-0.589,1.526-0.589c0.662,0,1.162,0.197,1.498,0.589c0.14,0.168,0.24,0.353,0.301,0.553s0.1,0.392,0.119,0.574
				c0.018,0.182,0.025,0.336,0.021,0.462s-0.007,0.193-0.007,0.203h-0.294c0.009-0.225,0.005-0.42-0.015-0.588
				c-0.018-0.168-0.053-0.344-0.104-0.525s-0.138-0.343-0.259-0.482c-0.141-0.159-0.313-0.28-0.518-0.364
				c-0.206-0.084-0.453-0.126-0.742-0.126c-0.57,0-1.004,0.163-1.303,0.49c-0.131,0.14-0.229,0.293-0.293,0.461
				c-0.066,0.168-0.113,0.325-0.141,0.47s-0.042,0.319-0.042,0.524c0,0.309,0.052,0.582,0.154,0.819
				c0.103,0.238,0.239,0.458,0.407,0.658c0.169,0.2,0.363,0.385,0.584,0.553c0.219,0.168,0.446,0.336,0.681,0.505
				c0.271,0.186,0.538,0.383,0.801,0.588s0.501,0.438,0.717,0.699c0.487,0.598,0.729,1.297,0.729,2.1
				c0,0.756-0.252,1.345-0.756,1.765c-0.41,0.336-0.924,0.504-1.539,0.504c-0.215,0-0.46-0.03-0.735-0.091
				S67.52,25.627,67.277,25.421z"/>
		</g>
	</g>
</g>
</svg>