<!-- Generator: Adobe Illustrator 22.1.0, SVG Export Plug-In  -->
<svg version="1.1"
	 xmlns="http://www.w3.org/2000/svg" xmlns:xlink="http://www.w3.org/1999/xlink" xmlns:a="http://ns.adobe.com/AdobeSVGViewerExtensions/3.0/"
	 x="0px" y="0px" width="388.116px" height="267.247px" viewBox="0 0 388.116 267.247"
	 style="enable-background:new 0 0 388.116 267.247;" xml:space="preserve">
<style type="text/css">
	.st0{fill:#9C9373;}
	.st1{fill:#CCC196;}
	.st2{fill:#E3D7A7;}
	.st3{fill:#FCF1C7;}
	.st4{fill:#A6AA87;}
	.st5{fill:#FBEEB9;}
	.st6{fill:#C7BD93;}
	.st7{fill:#BCB38B;}
	.st8{fill:#C7564B;}
	.st9{fill:#958E6E;}
	.st10{opacity:0.1;fill:#2F2D23;}
	.st11{opacity:0.15;fill:#2F2D23;}
	.st12{fill:#7E775D;}
	.st13{fill:#3F3C2E;}
</style>
<defs>
</defs>
<g>
	<g>
		<path class="st0" d="M345.162,254.312h-52.209v-5.292h52.039c0.094,0,0.17,0.076,0.17,0.17V254.312z"/>
		<rect x="292.953" y="150.028" class="st1" width="52.209" height="98.992"/>
		<g>
			<g>
				<path class="st2" d="M272.031,79.488c1.002,0,1.985,0.08,2.947,0.23l-1.011-2.575c-0.212-0.54-0.733-0.895-1.312-0.895h-1.246
					c-0.58,0-1.1,0.355-1.312,0.895l-1.011,2.575C270.046,79.568,271.03,79.488,272.031,79.488z"/>
				<path class="st3" d="M272.031,79.488c-10.935,0-19.8,9.297-19.8,20.766h39.599C291.831,88.785,282.966,79.488,272.031,79.488z"
					/>
				<path class="st4" d="M275.301,70.284h-2.55v-1.786c0-0.397-0.322-0.719-0.719-0.719c-0.397,0-0.719,0.322-0.719,0.719v1.786
					h-2.55c-0.352,0-0.638,0.285-0.638,0.638c0,0.352,0.285,0.637,0.638,0.637h2.55v4.69h1.438v-4.69h2.55
					c0.352,0,0.637-0.285,0.637-0.637C275.938,70.569,275.653,70.284,275.301,70.284z"/>
				<path class="st5" d="M292.924,121.768h-41.785v-18.661c0-1.703,1.38-3.083,3.083-3.083h35.619c1.703,0,3.083,1.38,3.083,3.083
					V121.768z"/>
				<path class="st6" d="M297.064,128.083h-50.066v-2.407c0-2.188,1.774-3.962,3.962-3.962h42.143c2.188,0,3.962,1.774,3.962,3.962
					V128.083z"/>
				<rect x="251.139" y="128.083" class="st5" width="41.785" height="120.938"/>
				<path class="st7" d="M294.432,249.021H249.63c-3.632,0-6.576,2.944-6.576,6.576v6.114h57.954v-6.114
					C301.008,251.965,298.064,249.021,294.432,249.021z"/>
				<g>
					<path class="st8" d="M264.16,121.165h-5.893v-12.457c0-1.627,1.319-2.947,2.947-2.947l0,0c1.627,0,2.947,1.319,2.947,2.947
						V121.165z"/>
					<path class="st8" d="M274.978,121.165h-5.893v-12.457c0-1.627,1.319-2.947,2.947-2.947l0,0c1.627,0,2.947,1.319,2.947,2.947
						V121.165z"/>
					<path class="st8" d="M285.796,121.165h-5.893v-12.457c0-1.627,1.319-2.947,2.947-2.947l0,0c1.627,0,2.947,1.319,2.947,2.947
						V121.165z"/>
				</g>
				<path class="st9" d="M251.139,128.083v6.252h1.862v-1.205c0-0.666,0.54-1.205,1.205-1.205c0.666,0,1.205,0.54,1.205,1.205v1.205
					h2.682v-1.205c0-0.666,0.54-1.205,1.205-1.205c0.666,0,1.205,0.54,1.205,1.205v1.205h2.682v-1.205
					c0-0.666,0.54-1.205,1.205-1.205c0.666,0,1.205,0.54,1.205,1.205v1.205h2.682v-1.205c0-0.666,0.54-1.205,1.205-1.205
					c0.666,0,1.205,0.54,1.205,1.205v1.205h2.682v-1.205c0-0.666,0.54-1.205,1.205-1.205c0.666,0,1.205,0.54,1.205,1.205v1.205
					h2.682v-1.205c0-0.666,0.54-1.205,1.205-1.205c0.666,0,1.205,0.54,1.205,1.205v1.205h2.682v-1.205
					c0-0.666,0.54-1.205,1.205-1.205c0.666,0,1.205,0.54,1.205,1.205v1.205h2.682v-1.205c0-0.666,0.54-1.205,1.205-1.205
					c0.666,0,1.205,0.54,1.205,1.205v1.205h1.862v-6.252H251.139z"/>
				<g>
					<path class="st8" d="M268.59,176.196h-7.871v-19.817c0-2.174,1.762-3.936,3.936-3.936l0,0c2.174,0,3.936,1.762,3.936,3.936
						V176.196z"/>
					<rect x="260.719" y="183.016" class="st8" width="7.871" height="35.806"/>
					<path class="st8" d="M283.344,176.196h-7.871v-21.304c0-1.352,1.096-2.448,2.448-2.448h2.975c1.352,0,2.448,1.096,2.448,2.448
						V176.196z"/>
					<rect x="275.473" y="183.016" class="st8" width="7.871" height="35.806"/>
				</g>
				<path class="st6" d="M293.982,103.039H250.08c-0.714,0-1.293-0.579-1.293-1.293l0,0c0-0.714,0.579-1.293,1.293-1.293h43.902
					c0.714,0,1.293,0.579,1.293,1.293l0,0C295.276,102.46,294.697,103.039,293.982,103.039z"/>
			</g>
			<path class="st10" d="M297.122,249.021h-4.198V134.335v-6.252h4.141v-3.949c0-1.336-1.083-2.419-2.419-2.419h-1.721v-18.675
				h1.058c0.714,0,1.294-0.579,1.294-1.293c0-0.714-0.579-1.294-1.294-1.294h-1.748c-0.127-0.103-0.255-0.208-0.407-0.274
				c-0.036-10.594-7.638-19.304-17.433-20.528c0.194,0.024,0.391,0.038,0.584,0.069l-1.011-2.575
				c-0.212-0.54-0.733-0.895-1.312-0.895h0.096v-4.691h2.55c0.352,0,0.637-0.285,0.637-0.637c0-0.352-0.285-0.638-0.637-0.638h-2.55
				v-1.786c0-0.397-0.322-0.719-0.719-0.719c-0.397,0-0.719,0.322-0.719,0.719v1.786h-2.55c-0.352,0-0.638,0.285-0.638,0.638
				c0,0.352,0.285,0.637,0.638,0.637h2.55v4.691h0.096c-0.58,0-1.1,0.355-1.312,0.895l-1.011,2.575
				c0.192-0.03,0.389-0.044,0.584-0.069c-9.795,1.224-17.397,9.935-17.433,20.528c-0.152,0.066-0.279,0.171-0.407,0.274h-1.748
				c-0.714,0-1.293,0.579-1.293,1.294c0,0.714,0.579,1.293,1.293,1.293h1.058v18.675h-1.721c-1.336,0-2.419,1.083-2.419,2.419v3.949
				h4.14v6.252l0,0v114.686h-4.198c-2.146,0-3.886,1.74-3.886,3.886v8.804h57.954v-8.804
				C301.008,250.761,299.269,249.021,297.122,249.021z M272.031,79.488c0.608,0,1.207,0.039,1.802,0.095
				C273.239,79.527,272.64,79.488,272.031,79.488c-0.608,0-1.207,0.039-1.802,0.095C270.824,79.527,271.423,79.488,272.031,79.488z"
				/>
		</g>
		<g>
			<g>
				<path class="st2" d="M363.181,102.833c0.862,0,1.708,0.068,2.536,0.198l-0.87-2.216c-0.182-0.464-0.63-0.77-1.129-0.77h-1.072
					c-0.499,0-0.947,0.305-1.129,0.77l-0.87,2.216C361.473,102.901,362.319,102.833,363.181,102.833z"/>
				<path class="st3" d="M363.181,102.833c-9.41,0-17.038,8-17.038,17.869h34.075C380.219,110.833,372.591,102.833,363.181,102.833z
					"/>
				<path class="st4" d="M365.994,94.912H363.8v-1.537c0-0.342-0.277-0.619-0.619-0.619c-0.342,0-0.619,0.277-0.619,0.619v1.537
					h-2.194c-0.303,0-0.549,0.246-0.549,0.549c0,0.303,0.245,0.549,0.549,0.549h2.194v4.036h1.237v-4.036h2.195
					c0.303,0,0.548-0.246,0.548-0.549C366.543,95.158,366.297,94.912,365.994,94.912z"/>
				<path class="st5" d="M381.159,139.215h-35.956v-16.058c0-1.465,1.188-2.653,2.653-2.653h30.65c1.465,0,2.653,1.188,2.653,2.653
					V139.215z"/>
				<path class="st6" d="M384.722,144.648H341.64v-2.071c0-1.883,1.526-3.409,3.409-3.409h36.264c1.883,0,3.409,1.526,3.409,3.409
					V144.648z"/>
				<rect x="345.203" y="144.648" class="st5" width="35.956" height="104.068"/>
				<path class="st7" d="M382.457,248.716h-38.552c-3.125,0-5.659,2.533-5.659,5.659v5.261h49.87v-5.261
					C388.116,251.249,385.582,248.716,382.457,248.716z"/>
				<g>
					<path class="st8" d="M356.408,138.696h-5.071v-10.72c0-1.4,1.135-2.536,2.536-2.536l0,0c1.4,0,2.536,1.135,2.536,2.536V138.696
						z"/>
					<path class="st8" d="M365.717,138.696h-5.071v-10.72c0-1.4,1.135-2.536,2.536-2.536l0,0c1.4,0,2.536,1.135,2.536,2.536V138.696
						z"/>
					<path class="st8" d="M375.026,138.696h-5.071v-10.72c0-1.4,1.135-2.536,2.536-2.536l0,0c1.4,0,2.536,1.135,2.536,2.536V138.696
						z"/>
				</g>
				<path class="st9" d="M345.203,144.648v5.38h1.602v-1.037c0-0.573,0.464-1.037,1.037-1.037c0.573,0,1.037,0.464,1.037,1.037
					v1.037h2.308v-1.037c0-0.573,0.464-1.037,1.037-1.037c0.573,0,1.037,0.464,1.037,1.037v1.037h2.308v-1.037
					c0-0.573,0.464-1.037,1.037-1.037c0.573,0,1.037,0.464,1.037,1.037v1.037h2.308v-1.037c0-0.573,0.464-1.037,1.037-1.037
					c0.573,0,1.037,0.464,1.037,1.037v1.037h2.308v-1.037c0-0.573,0.464-1.037,1.037-1.037c0.573,0,1.037,0.464,1.037,1.037v1.037
					h2.308v-1.037c0-0.573,0.464-1.037,1.037-1.037c0.573,0,1.037,0.464,1.037,1.037v1.037h2.308v-1.037
					c0-0.573,0.464-1.037,1.037-1.037c0.573,0,1.037,0.464,1.037,1.037v1.037h2.308v-1.037c0-0.573,0.464-1.037,1.037-1.037
					c0.573,0,1.037,0.464,1.037,1.037v1.037h1.602v-5.38H345.203z"/>
				<g>
					<path class="st8" d="M360.22,186.05h-6.773v-18.333c0-1.164,0.943-2.107,2.107-2.107h2.56c1.164,0,2.107,0.943,2.107,2.107
						V186.05z"/>
					<rect x="353.446" y="191.919" class="st8" width="6.773" height="30.811"/>
					<path class="st8" d="M372.916,186.05h-6.773v-17.053c0-1.87,1.516-3.387,3.387-3.387l0,0c1.87,0,3.387,1.516,3.387,3.387
						V186.05z"/>
					<rect x="366.142" y="191.919" class="st8" width="6.773" height="30.811"/>
				</g>
				<path class="st6" d="M382.07,123.098h-37.778c-0.615,0-1.113-0.498-1.113-1.113l0,0c0-0.615,0.498-1.113,1.113-1.113h37.778
					c0.615,0,1.113,0.498,1.113,1.113l0,0C383.183,122.6,382.685,123.098,382.07,123.098z"/>
			</g>
			<path class="st11" d="M384.772,248.716h-3.613v-98.688v-5.38h3.563v-3.398c0-1.15-0.932-2.082-2.082-2.082h-1.481v-16.07h0.911
				c0.615,0,1.113-0.498,1.113-1.113s-0.498-1.113-1.113-1.113h-1.504c-0.11-0.089-0.219-0.179-0.35-0.236
				c-0.031-9.116-6.572-16.611-15.001-17.665c0.167,0.021,0.337,0.033,0.502,0.059l-0.87-2.216c-0.182-0.464-0.63-0.77-1.129-0.77
				h0.082v-4.036h2.195c0.303,0,0.548-0.246,0.548-0.549c0-0.303-0.245-0.549-0.548-0.549H363.8v-1.537
				c0-0.342-0.277-0.619-0.619-0.619c-0.342,0-0.619,0.277-0.619,0.619v1.537h-2.194c-0.303,0-0.549,0.246-0.549,0.549
				c0,0.303,0.245,0.549,0.549,0.549h2.194v4.036h0.082c-0.499,0-0.947,0.305-1.129,0.77l-0.87,2.216
				c0.165-0.026,0.335-0.038,0.502-0.059c-8.429,1.053-14.97,8.549-15.001,17.665c-0.131,0.057-0.24,0.147-0.35,0.236h-1.504
				c-0.615,0-1.113,0.498-1.113,1.113s0.498,1.113,1.113,1.113h0.911v16.07h-1.481c-1.15,0-2.082,0.932-2.082,2.082v3.398h3.563
				v5.38l0,0v98.688h-3.613c-1.847,0-3.344,1.497-3.344,3.344v7.576h49.87v-7.576C388.116,250.213,386.619,248.716,384.772,248.716z
				 M363.181,102.833c0.523,0,1.039,0.033,1.551,0.082C364.22,102.866,363.704,102.833,363.181,102.833
				c-0.524,0-1.039,0.034-1.551,0.082C362.142,102.866,362.657,102.833,363.181,102.833z"/>
		</g>
		<g>
			<path class="st0" d="M312.973,188.552h-9.172v-19.221c0-2.533,2.053-4.586,4.586-4.586l0,0c2.533,0,4.586,2.053,4.586,4.586
				V188.552z"/>
			<path class="st0" d="M334.315,188.552h-9.172v-19.221c0-2.533,2.053-4.586,4.586-4.586l0,0c2.533,0,4.586,2.053,4.586,4.586
				V188.552z"/>
		</g>
		<g>
			<path class="st0" d="M312.973,227.709h-9.172v-19.221c0-2.533,2.053-4.586,4.586-4.586l0,0c2.533,0,4.586,2.053,4.586,4.586
				V227.709z"/>
			<path class="st0" d="M334.315,227.709h-9.172v-19.221c0-2.533,2.053-4.586,4.586-4.586l0,0c2.533,0,4.586,2.053,4.586,4.586
				V227.709z"/>
		</g>
	</g>
	<g>
		<path class="st0" d="M42.953,254.312h52.209v-5.292H43.124c-0.094,0-0.17,0.076-0.17,0.17V254.312z"/>
		
			<rect x="42.953" y="150.028" transform="matrix(-1 -1.224647e-16 1.224647e-16 -1 138.1159 399.0493)" class="st1" width="52.209" height="98.992"/>
		<g>
			<g>
				<path class="st2" d="M116.085,79.488c-1.002,0-1.985,0.08-2.947,0.23l1.011-2.575c0.212-0.54,0.733-0.895,1.312-0.895h1.246
					c0.58,0,1.1,0.355,1.312,0.895l1.011,2.575C118.07,79.568,117.086,79.488,116.085,79.488z"/>
				<path class="st3" d="M116.085,79.488c10.935,0,19.8,9.297,19.8,20.766H96.285C96.285,88.785,105.149,79.488,116.085,79.488z"/>
				<path class="st4" d="M112.815,70.284h2.55v-1.786c0-0.397,0.322-0.719,0.719-0.719c0.397,0,0.719,0.322,0.719,0.719v1.786h2.55
					c0.352,0,0.637,0.285,0.637,0.638c0,0.352-0.285,0.637-0.637,0.637h-2.55v4.69h-1.438v-4.69h-2.55
					c-0.352,0-0.637-0.285-0.637-0.637C112.178,70.569,112.463,70.284,112.815,70.284z"/>
				<path class="st5" d="M95.192,121.768h41.785v-18.661c0-1.703-1.38-3.083-3.083-3.083H98.275c-1.703,0-3.083,1.38-3.083,3.083
					V121.768z"/>
				<path class="st6" d="M91.051,128.083h50.066v-2.407c0-2.188-1.774-3.962-3.962-3.962H95.013c-2.188,0-3.962,1.774-3.962,3.962
					V128.083z"/>
				
					<rect x="95.192" y="128.083" transform="matrix(-1 -1.224647e-16 1.224647e-16 -1 232.169 377.1035)" class="st5" width="41.785" height="120.938"/>
				<path class="st7" d="M93.683,249.021h44.802c3.632,0,6.576,2.944,6.576,6.576v6.114H87.107v-6.114
					C87.107,251.965,90.052,249.021,93.683,249.021z"/>
				<g>
					<path class="st8" d="M123.956,121.165h5.893v-12.457c0-1.627-1.319-2.947-2.947-2.947l0,0c-1.627,0-2.947,1.319-2.947,2.947
						V121.165z"/>
					<path class="st8" d="M113.138,121.165h5.893v-12.457c0-1.627-1.319-2.947-2.947-2.947l0,0c-1.627,0-2.947,1.319-2.947,2.947
						V121.165z"/>
					<path class="st8" d="M102.32,121.165h5.893v-13.571c0-1.012-0.821-1.833-1.833-1.833h-2.227c-1.012,0-1.833,0.821-1.833,1.833
						V121.165z"/>
				</g>
				<path class="st9" d="M136.977,128.083v6.252h-1.862v-1.205c0-0.666-0.54-1.205-1.205-1.205c-0.666,0-1.205,0.54-1.205,1.205
					v1.205h-2.682v-1.205c0-0.666-0.54-1.205-1.205-1.205c-0.666,0-1.205,0.54-1.205,1.205v1.205h-2.682v-1.205
					c0-0.666-0.54-1.205-1.205-1.205c-0.666,0-1.205,0.54-1.205,1.205v1.205h-2.682v-1.205c0-0.666-0.54-1.205-1.205-1.205
					c-0.666,0-1.205,0.54-1.205,1.205v1.205h-2.682v-1.205c0-0.666-0.54-1.205-1.205-1.205c-0.666,0-1.205,0.54-1.205,1.205v1.205
					h-2.682v-1.205c0-0.666-0.54-1.205-1.205-1.205c-0.666,0-1.205,0.54-1.205,1.205v1.205h-2.682v-1.205
					c0-0.666-0.54-1.205-1.205-1.205c-0.666,0-1.205,0.54-1.205,1.205v1.205h-2.682v-1.205c0-0.666-0.54-1.205-1.205-1.205
					c-0.666,0-1.205,0.54-1.205,1.205v1.205h-1.862v-6.252H136.977z"/>
				<g>
					<path class="st8" d="M119.526,176.196h7.871v-21.304c0-1.352-1.096-2.448-2.448-2.448h-2.975c-1.352,0-2.448,1.096-2.448,2.448
						V176.196z"/>
					
						<rect x="119.526" y="183.016" transform="matrix(-1 -1.224647e-16 1.224647e-16 -1 246.9228 401.8383)" class="st8" width="7.871" height="35.806"/>
					<path class="st8" d="M104.772,176.196h7.871v-19.817c0-2.174-1.762-3.936-3.936-3.936l0,0c-2.174,0-3.936,1.762-3.936,3.936
						V176.196z"/>
					
						<rect x="104.772" y="183.016" transform="matrix(-1 -1.224647e-16 1.224647e-16 -1 217.4152 401.8383)" class="st8" width="7.871" height="35.806"/>
				</g>
				<path class="st6" d="M94.134,103.039h43.902c0.714,0,1.293-0.579,1.293-1.293l0,0c0-0.714-0.579-1.293-1.293-1.293H94.134
					c-0.714,0-1.293,0.579-1.293,1.293l0,0C92.84,102.46,93.419,103.039,94.134,103.039z"/>
			</g>
			<path class="st10" d="M87.108,252.907v8.804h57.954v-8.804c0-2.146-1.74-3.886-3.886-3.886h-4.198V134.335l0,0v-6.252h4.14
				v-3.949c0-1.336-1.083-2.419-2.419-2.419h-1.721v-18.675h1.058c0.714,0,1.293-0.579,1.293-1.293c0-0.714-0.579-1.294-1.293-1.294
				h-1.748c-0.127-0.103-0.254-0.208-0.407-0.274c-0.037-10.594-7.638-19.304-17.433-20.528c0.194,0.024,0.391,0.038,0.584,0.069
				l-1.011-2.575c-0.212-0.54-0.732-0.895-1.312-0.895h0.096v-4.691h2.55c0.352,0,0.637-0.285,0.637-0.637
				c0-0.352-0.285-0.638-0.637-0.638h-2.55v-1.786c0-0.397-0.322-0.719-0.719-0.719c-0.397,0-0.719,0.322-0.719,0.719v1.786h-2.55
				c-0.352,0-0.637,0.285-0.637,0.638c0,0.352,0.285,0.637,0.637,0.637h2.55v4.691h0.096c-0.58,0-1.1,0.355-1.312,0.895
				l-1.011,2.575c0.192-0.03,0.39-0.044,0.584-0.069c-9.795,1.224-17.397,9.935-17.433,20.528c-0.152,0.066-0.279,0.171-0.407,0.274
				h-1.748c-0.715,0-1.294,0.579-1.294,1.294c0,0.714,0.579,1.293,1.294,1.293h1.058v18.675h-1.721
				c-1.336,0-2.419,1.083-2.419,2.419v3.949h4.14v6.252v114.686h-4.198C88.847,249.021,87.108,250.761,87.108,252.907z
				 M117.886,79.584c-0.594-0.056-1.194-0.095-1.802-0.095c-0.608,0-1.208,0.039-1.802,0.095c0.594-0.057,1.194-0.095,1.802-0.095
				C116.693,79.488,117.292,79.527,117.886,79.584z"/>
		</g>
		<g>
			<g>
				<path class="st2" d="M24.935,102.833c-0.862,0-1.708,0.068-2.536,0.198l0.87-2.216c0.182-0.464,0.63-0.77,1.129-0.77h1.072
					c0.499,0,0.947,0.305,1.129,0.77l0.87,2.216C26.643,102.901,25.797,102.833,24.935,102.833z"/>
				<path class="st3" d="M24.935,102.833c9.41,0,17.038,8,17.038,17.869H7.897C7.897,110.833,15.525,102.833,24.935,102.833z"/>
				<path class="st4" d="M22.122,94.912h2.195v-1.537c0-0.342,0.277-0.619,0.619-0.619c0.342,0,0.619,0.277,0.619,0.619v1.537h2.194
					c0.303,0,0.549,0.246,0.549,0.549c0,0.303-0.245,0.549-0.549,0.549h-2.194v4.036h-1.237v-4.036h-2.195
					c-0.303,0-0.548-0.246-0.548-0.549C21.573,95.158,21.819,94.912,22.122,94.912z"/>
				<path class="st5" d="M6.957,139.215h35.956v-16.058c0-1.465-1.188-2.653-2.653-2.653H9.61c-1.465,0-2.653,1.188-2.653,2.653
					V139.215z"/>
				<path class="st6" d="M3.394,144.648h43.082v-2.071c0-1.883-1.526-3.409-3.409-3.409H6.803c-1.883,0-3.409,1.526-3.409,3.409
					V144.648z"/>
				
					<rect x="6.957" y="144.648" transform="matrix(-1 -1.224647e-16 1.224647e-16 -1 49.8697 393.3644)" class="st5" width="35.956" height="104.068"/>
				<path class="st7" d="M5.659,248.716h38.552c3.125,0,5.659,2.533,5.659,5.659v5.261H0v-5.261
					C0,251.249,2.533,248.716,5.659,248.716z"/>
				<g>
					<path class="st8" d="M31.708,138.696h5.071v-11.678c0-0.871-0.706-1.577-1.577-1.577h-1.917c-0.871,0-1.577,0.706-1.577,1.577
						V138.696z"/>
					<path class="st8" d="M22.399,138.696h5.071v-11.678c0-0.871-0.706-1.577-1.577-1.577h-1.917c-0.871,0-1.577,0.706-1.577,1.577
						V138.696z"/>
					<path class="st8" d="M13.09,138.696h5.071v-10.72c0-1.4-1.135-2.536-2.536-2.536l0,0c-1.4,0-2.536,1.135-2.536,2.536V138.696z"
						/>
				</g>
				<path class="st9" d="M42.913,144.648v5.38h-1.602v-1.037c0-0.573-0.464-1.037-1.037-1.037c-0.573,0-1.037,0.464-1.037,1.037
					v1.037h-2.308v-1.037c0-0.573-0.464-1.037-1.037-1.037c-0.573,0-1.037,0.464-1.037,1.037v1.037h-2.308v-1.037
					c0-0.573-0.464-1.037-1.037-1.037c-0.573,0-1.037,0.464-1.037,1.037v1.037h-2.308v-1.037c0-0.573-0.464-1.037-1.037-1.037
					c-0.573,0-1.037,0.464-1.037,1.037v1.037h-2.308v-1.037c0-0.573-0.464-1.037-1.037-1.037c-0.573,0-1.037,0.464-1.037,1.037
					v1.037h-2.308v-1.037c0-0.573-0.464-1.037-1.037-1.037c-0.573,0-1.037,0.464-1.037,1.037v1.037h-2.308v-1.037
					c0-0.573-0.464-1.037-1.037-1.037c-0.573,0-1.037,0.464-1.037,1.037v1.037h-2.308v-1.037c0-0.573-0.464-1.037-1.037-1.037
					c-0.573,0-1.037,0.464-1.037,1.037v1.037H6.957v-5.38H42.913z"/>
				<g>
					<path class="st8" d="M27.896,186.05h6.773v-17.053c0-1.87-1.516-3.387-3.387-3.387l0,0c-1.87,0-3.387,1.516-3.387,3.387V186.05
						z"/>
					
						<rect x="27.896" y="191.919" transform="matrix(-1 -1.224647e-16 1.224647e-16 -1 62.5654 414.6487)" class="st8" width="6.773" height="30.811"/>
					<path class="st8" d="M15.2,186.05h6.773v-17.053c0-1.87-1.516-3.387-3.387-3.387l0,0c-1.87,0-3.387,1.516-3.387,3.387V186.05z"
						/>
					
						<rect x="15.2" y="191.919" transform="matrix(-1 -1.224647e-16 1.224647e-16 -1 37.174 414.6487)" class="st8" width="6.773" height="30.811"/>
				</g>
				<path class="st6" d="M6.046,123.098h37.778c0.615,0,1.113-0.498,1.113-1.113l0,0c0-0.615-0.498-1.113-1.113-1.113H6.046
					c-0.615,0-1.113,0.498-1.113,1.113l0,0C4.933,122.6,5.431,123.098,6.046,123.098z"/>
			</g>
			<path class="st11" d="M0,252.06v7.576h49.87v-7.576c0-1.847-1.497-3.344-3.344-3.344h-3.613v-98.688l0,0v-5.38h3.563v-3.398
				c0-1.15-0.932-2.082-2.082-2.082h-1.481v-16.07h0.911c0.615,0,1.113-0.498,1.113-1.113s-0.498-1.113-1.113-1.113h-1.504
				c-0.11-0.089-0.219-0.179-0.35-0.236c-0.031-9.116-6.573-16.611-15.001-17.665c0.167,0.021,0.337,0.033,0.502,0.059l-0.87-2.216
				c-0.182-0.464-0.63-0.77-1.129-0.77h0.082v-4.036h2.194c0.303,0,0.549-0.246,0.549-0.549c0-0.303-0.245-0.549-0.549-0.549h-2.194
				v-1.537c0-0.342-0.277-0.619-0.619-0.619c-0.342,0-0.619,0.277-0.619,0.619v1.537h-2.195c-0.303,0-0.548,0.246-0.548,0.549
				c0,0.303,0.245,0.549,0.548,0.549h2.195v4.036h0.082c-0.499,0-0.947,0.305-1.129,0.77l-0.87,2.216
				c0.166-0.026,0.335-0.038,0.502-0.059c-8.429,1.053-14.97,8.549-15.001,17.665c-0.131,0.057-0.24,0.147-0.35,0.236H6.046
				c-0.615,0-1.113,0.498-1.113,1.113s0.498,1.113,1.113,1.113h0.911v16.07H5.476c-1.15,0-2.082,0.932-2.082,2.082v3.398h3.563v5.38
				v98.688H3.344C1.497,248.716,0,250.213,0,252.06z M26.485,102.915c-0.512-0.048-1.027-0.082-1.551-0.082
				s-1.039,0.034-1.551,0.082c0.512-0.049,1.027-0.082,1.551-0.082S25.974,102.866,26.485,102.915z"/>
		</g>
		<g>
			<path class="st0" d="M75.143,188.552h9.172v-19.221c0-2.533-2.053-4.586-4.586-4.586l0,0c-2.533,0-4.586,2.053-4.586,4.586
				V188.552z"/>
			<path class="st0" d="M53.801,188.552h9.172v-19.221c0-2.533-2.053-4.586-4.586-4.586l0,0c-2.533,0-4.586,2.053-4.586,4.586
				V188.552z"/>
		</g>
		<g>
			<path class="st0" d="M75.143,227.709h9.172v-19.221c0-2.533-2.053-4.586-4.586-4.586l0,0c-2.533,0-4.586,2.053-4.586,4.586
				V227.709z"/>
			<path class="st0" d="M53.801,227.709h9.172v-19.221c0-2.533-2.053-4.586-4.586-4.586l0,0c-2.533,0-4.586,2.053-4.586,4.586
				V227.709z"/>
		</g>
	</g>
	<path class="st4" d="M200.42,4.85h-4.939V1.392c0-0.769-0.623-1.392-1.392-1.392c-0.769,0-1.392,0.623-1.392,1.392V4.85h-4.939
		c-0.682,0-1.235,0.553-1.235,1.235c0,0.682,0.553,1.235,1.235,1.235h4.939v9.084h2.785V7.32h4.939c0.682,0,1.235-0.553,1.235-1.235
		C201.655,5.403,201.102,4.85,200.42,4.85z"/>
	<path class="st6" d="M233.976,68.364h-79.773c-1.551,0-2.809-1.257-2.809-2.809l0,0c0-1.551,1.257-2.809,2.809-2.809h79.773
		c1.551,0,2.809,1.257,2.809,2.809l0,0C236.784,67.106,235.527,68.364,233.976,68.364z"/>
	<path class="st2" d="M194.089,22.532c1.939,0,3.845,0.154,5.707,0.446l-1.958-4.986c-0.41-1.045-1.419-1.732-2.541-1.732h-2.414
		c-1.123,0-2.131,0.687-2.541,1.732l-1.958,4.986C190.245,22.686,192.15,22.532,194.089,22.532z"/>
	<path class="st3" d="M194.089,22.532c-21.177,0-38.344,18.005-38.344,40.215h76.689C232.434,40.537,215.266,22.532,194.089,22.532z
		"/>
	<path class="st5" d="M234.55,110.474h-80.922V74.335c0-3.298,2.673-5.971,5.971-5.971h68.98c3.298,0,5.971,2.673,5.971,5.971
		V110.474z"/>
	<path class="st6" d="M239.484,126.466h-90.79v-10.371c0-3.105,2.517-5.621,5.621-5.621h79.547c3.105,0,5.621,2.517,5.621,5.621
		V126.466z"/>
	<g>
		<g>
			<path class="st8" d="M170.508,104.234h-9.193V84.608c0-2.539,2.058-4.597,4.597-4.597l0,0c2.539,0,4.597,2.058,4.597,4.597
				V104.234z"/>
			<path class="st8" d="M184.597,104.234h-9.193V84.608c0-2.539,2.058-4.597,4.597-4.597l0,0c2.539,0,4.597,2.058,4.597,4.597
				V104.234z"/>
			<path class="st8" d="M198.686,104.234h-9.193V84.608c0-2.539,2.058-4.597,4.597-4.597l0,0c2.539,0,4.597,2.058,4.597,4.597
				V104.234z"/>
			<path class="st8" d="M212.775,104.234h-9.193V84.608c0-2.539,2.058-4.597,4.597-4.597l0,0c2.539,0,4.597,2.058,4.597,4.597
				V104.234z"/>
			<path class="st8" d="M226.864,104.234h-9.193V84.608c0-2.539,2.058-4.597,4.597-4.597l0,0c2.539,0,4.597,2.058,4.597,4.597
				V104.234z"/>
		</g>
	</g>
	<path class="st5" d="M251.125,250.639H137.053V131.452c0-2.754,2.232-4.986,4.986-4.986h104.1c2.754,0,4.986,2.232,4.986,4.986
		V250.639z"/>
	<path class="st6" d="M248.551,161.507c-1.553,0-2.808-1.174-3.023-2.712c-2.253-16.135-24.422-28.802-51.439-28.802
		c-27.016,0-49.186,12.667-51.439,28.802c-0.215,1.538-1.47,2.712-3.023,2.712h-2.575v7.29h9.06c2.666,0,4.827-2.161,4.827-4.827
		v-2.463l0,0c0-14.027,20.168-25.399,43.149-25.399c22.98,0,43.149,11.372,43.149,25.399v2.463c0,2.666,2.161,4.827,4.827,4.827
		h9.06v-7.29H248.551z"/>
	<rect x="137.053" y="193.726" class="st6" width="114.072" height="5.644"/>
	<g>
		<path class="st8" d="M194.089,152.806L194.089,152.806c-2.539,0-4.597,2.058-4.597,4.597v36.324h9.193v-36.324
			C198.686,154.864,196.628,152.806,194.089,152.806z"/>
		<path class="st8" d="M181.267,157.798L181.267,157.798c-2.539,0-4.597,2.058-4.597,4.597v31.332h9.193v-31.332
			C185.864,159.856,183.806,157.798,181.267,157.798z"/>
		<path class="st8" d="M168.446,164.201L168.446,164.201c-2.539,0-4.597,2.058-4.597,4.597v24.929h9.193v-24.929
			C173.042,166.259,170.984,164.201,168.446,164.201z"/>
		<path class="st8" d="M155.624,172.325L155.624,172.325c-2.539,0-4.597,2.058-4.597,4.597v16.804h9.193v-16.804
			C160.22,174.383,158.163,172.325,155.624,172.325z"/>
		<path class="st8" d="M206.911,157.798L206.911,157.798c2.539,0,4.597,2.058,4.597,4.597v31.332h-9.193v-31.332
			C202.314,159.856,204.372,157.798,206.911,157.798z"/>
		<path class="st8" d="M219.733,164.201L219.733,164.201c2.539,0,4.597,2.058,4.597,4.597v24.929h-9.193v-24.929
			C215.136,166.259,217.194,164.201,219.733,164.201z"/>
		<path class="st8" d="M232.554,172.325L232.554,172.325c2.539,0,4.597,2.058,4.597,4.597v16.804h-9.193v-16.804
			C227.958,174.383,230.016,172.325,232.554,172.325z"/>
	</g>
	<g>
		<path class="st8" d="M174.457,249.703h-25.644v-29.279c0-7.081,5.74-12.822,12.822-12.822l0,0c7.081,0,12.822,5.74,12.822,12.822
			V249.703z"/>
		<path class="st8" d="M206.911,249.703h-25.644v-34.125c0-4.405,3.571-7.976,7.976-7.976h9.691c4.405,0,7.976,3.571,7.976,7.976
			V249.703z"/>
		<path class="st8" d="M239.365,249.703h-25.644v-29.279c0-7.081,5.74-12.822,12.822-12.822l0,0c7.081,0,12.822,5.74,12.822,12.822
			V249.703z"/>
	</g>
	<path class="st7" d="M255.182,256.175H132.996v-2.092c0-1.902,1.542-3.444,3.444-3.444h115.298c1.902,0,3.444,1.542,3.444,3.444
		V256.175z"/>
	<path class="st12" d="M263.031,261.711H125.147v-2.092c0-1.902,1.542-3.444,3.444-3.444h130.996c1.902,0,3.444,1.542,3.444,3.444
		V261.711z"/>
	<path class="st13" d="M274.937,267.247H113.241v-2.092c0-1.902,1.542-3.444,3.444-3.444h154.808c1.902,0,3.444,1.542,3.444,3.444
		V267.247z"/>
	<path class="st8" d="M200.42,118.417h-4.939v-3.458c0-0.769-0.623-1.392-1.392-1.392c-0.769,0-1.392,0.623-1.392,1.392v3.458
		h-4.939c-0.682,0-1.235,0.553-1.235,1.235s0.553,1.235,1.235,1.235h4.939v9.084h2.785v-9.084h4.939
		c0.682,0,1.235-0.553,1.235-1.235S201.102,118.417,200.42,118.417z"/>
</g>
</svg>