<!-- Generator: Adobe Illustrator 22.1.0, SVG Export Plug-In  -->
<svg version="1.1"
	 xmlns="http://www.w3.org/2000/svg" xmlns:xlink="http://www.w3.org/1999/xlink" xmlns:a="http://ns.adobe.com/AdobeSVGViewerExtensions/3.0/"
	 x="0px" y="0px" width="977px" height="560px" viewBox="0 0 977 560" style="enable-background:new 0 0 977 560;"
	 xml:space="preserve">
<style type="text/css">
	.st0{fill-rule:evenodd;clip-rule:evenodd;fill:#FFF0E0;}
	.st1{fill-rule:evenodd;clip-rule:evenodd;fill:#071213;}
	.st2{fill:#DB4441;}
	.st3{fill:#959997;}
	.st4{fill-rule:evenodd;clip-rule:evenodd;fill:#171F26;}
	.st5{fill:#008D8F;}
	.st6{font-family:'MyriadPro-Regular';}
	.st7{font-size:38.0258px;}
	.st8{font-size:30.7814px;}
	.st9{font-size:66.9719px;}
</style>
<defs>
</defs>
<g>
	<rect x="9" y="91" class="st0" width="960" height="469"/>
	<rect class="st1" width="969" height="91"/>
	<g>
		<path class="st2" d="M28.817,40.082c2.016-0.304,4.411-0.532,7.035-0.532c4.753,0,8.137,1.103,10.381,3.194
			c2.281,2.092,3.612,5.058,3.612,9.202c0,4.183-1.293,7.605-3.688,9.962c-2.396,2.396-6.351,3.688-11.332,3.688
			c-2.357,0-4.335-0.114-6.008-0.304V40.082z M32.126,62.745c0.836,0.152,2.053,0.19,3.346,0.19c7.073,0,10.913-3.955,10.913-10.875
			c0.038-6.046-3.384-9.887-10.381-9.887c-1.711,0-3.004,0.152-3.878,0.342V62.745z"/>
		<path class="st2" d="M56.043,56.774c0.076,4.525,2.967,6.388,6.313,6.388c2.396,0,3.841-0.418,5.096-0.951l0.57,2.396
			c-1.179,0.533-3.194,1.141-6.122,1.141c-5.666,0-9.05-3.727-9.05-9.278c0-5.551,3.27-9.924,8.631-9.924
			c6.009,0,7.605,5.285,7.605,8.669c0,0.685-0.076,1.217-0.114,1.559H56.043z M65.854,54.379c0.038-2.129-0.874-5.438-4.639-5.438
			c-3.385,0-4.867,3.118-5.134,5.438H65.854z"/>
		<path class="st2" d="M88.63,33.921l-4.867,4.449h-2.699l3.498-4.449H88.63z M84.714,39.739v25.629h-3.309V39.739H84.714z"/>
		<path class="st2" d="M95.019,41.679v5.285h4.791v2.548h-4.791v9.925c0,2.281,0.646,3.574,2.51,3.574
			c0.874,0,1.521-0.114,1.938-0.229l0.152,2.51c-0.646,0.266-1.673,0.457-2.966,0.457c-1.559,0-2.813-0.495-3.612-1.407
			c-0.95-0.988-1.293-2.624-1.293-4.791V49.512h-2.852v-2.548h2.852v-4.411L95.019,41.679z"/>
		<path class="st2" d="M113.766,65.368l-0.267-2.319h-0.114c-1.026,1.445-3.004,2.738-5.627,2.738c-3.727,0-5.628-2.624-5.628-5.286
			c0-4.449,3.954-6.882,11.065-6.845v-0.38c0-1.521-0.419-4.259-4.184-4.259c-1.711,0-3.498,0.532-4.791,1.369l-0.76-2.206
			c1.521-0.988,3.727-1.635,6.046-1.635c5.627,0,6.996,3.84,6.996,7.529v6.882c0,1.597,0.076,3.156,0.305,4.411H113.766z
			 M113.271,55.976c-3.65-0.076-7.796,0.57-7.796,4.145c0,2.167,1.445,3.194,3.156,3.194c2.396,0,3.917-1.521,4.449-3.08
			c0.114-0.342,0.19-0.723,0.19-1.065V55.976z"/>
		<path class="st2" d="M135.021,64.684c-0.875,0.457-2.814,1.065-5.285,1.065c-5.552,0-9.164-3.765-9.164-9.392
			c0-5.666,3.878-9.772,9.886-9.772c1.978,0,3.727,0.494,4.64,0.951l-0.761,2.585c-0.799-0.456-2.054-0.875-3.879-0.875
			c-4.221,0-6.502,3.118-6.502,6.958c0,4.259,2.738,6.883,6.389,6.883c1.9,0,3.155-0.495,4.106-0.913L135.021,64.684z"/>
		<path class="st2" d="M149.129,65.368l-0.267-2.319h-0.114c-1.026,1.445-3.004,2.738-5.627,2.738c-3.727,0-5.628-2.624-5.628-5.286
			c0-4.449,3.954-6.882,11.065-6.845v-0.38c0-1.521-0.419-4.259-4.184-4.259c-1.711,0-3.498,0.532-4.791,1.369l-0.76-2.206
			c1.521-0.988,3.727-1.635,6.046-1.635c5.627,0,6.996,3.84,6.996,7.529v6.882c0,1.597,0.076,3.156,0.305,4.411H149.129z
			 M148.635,55.976c-3.65-0.076-7.796,0.57-7.796,4.145c0,2.167,1.445,3.194,3.156,3.194c2.396,0,3.917-1.521,4.449-3.08
			c0.114-0.342,0.19-0.723,0.19-1.065V55.976z"/>
		<path class="st2" d="M175.519,65.368l-0.267-2.319h-0.114c-1.026,1.445-3.004,2.738-5.627,2.738c-3.727,0-5.628-2.624-5.628-5.286
			c0-4.449,3.954-6.882,11.065-6.845v-0.38c0-1.521-0.419-4.259-4.183-4.259c-1.712,0-3.499,0.532-4.792,1.369l-0.76-2.206
			c1.521-0.988,3.726-1.635,6.046-1.635c5.627,0,6.996,3.84,6.996,7.529v6.882c0,1.597,0.076,3.156,0.305,4.411H175.519z
			 M175.023,55.976c-3.65-0.076-7.795,0.57-7.795,4.145c0,2.167,1.445,3.194,3.156,3.194c2.396,0,3.917-1.521,4.449-3.08
			c0.114-0.342,0.189-0.723,0.189-1.065V55.976z"/>
		<path class="st2" d="M191.831,40.082c1.445-0.304,3.727-0.532,6.046-0.532c3.309,0,5.438,0.57,7.035,1.863
			c1.331,0.989,2.129,2.509,2.129,4.525c0,2.472-1.635,4.639-4.335,5.627v0.076c2.434,0.608,5.286,2.624,5.286,6.426
			c0,2.206-0.875,3.878-2.168,5.133c-1.787,1.635-4.677,2.396-8.859,2.396c-2.281,0-4.031-0.152-5.134-0.304V40.082z M195.14,50.577
			h3.004c3.498,0,5.552-1.825,5.552-4.297c0-3.004-2.281-4.183-5.628-4.183c-1.521,0-2.396,0.114-2.928,0.229V50.577z
			 M195.14,62.858c0.646,0.114,1.597,0.152,2.775,0.152c3.423,0,6.578-1.255,6.578-4.981c0-3.498-3.004-4.943-6.616-4.943h-2.737
			V62.858z"/>
		<path class="st2" d="M222.518,65.368l-0.267-2.319h-0.114c-1.026,1.445-3.004,2.738-5.627,2.738c-3.727,0-5.628-2.624-5.628-5.286
			c0-4.449,3.954-6.882,11.065-6.845v-0.38c0-1.521-0.419-4.259-4.184-4.259c-1.711,0-3.498,0.532-4.791,1.369l-0.76-2.206
			c1.521-0.988,3.727-1.635,6.046-1.635c5.627,0,6.996,3.84,6.996,7.529v6.882c0,1.597,0.076,3.156,0.305,4.411H222.518z
			 M222.023,55.976c-3.65-0.076-7.796,0.57-7.796,4.145c0,2.167,1.445,3.194,3.156,3.194c2.396,0,3.917-1.521,4.449-3.08
			c0.114-0.342,0.19-0.723,0.19-1.065V55.976z"/>
		<path class="st2" d="M243.773,64.684c-0.875,0.457-2.814,1.065-5.285,1.065c-5.552,0-9.164-3.765-9.164-9.392
			c0-5.666,3.878-9.772,9.886-9.772c1.978,0,3.727,0.494,4.64,0.951l-0.761,2.585c-0.799-0.456-2.054-0.875-3.879-0.875
			c-4.221,0-6.502,3.118-6.502,6.958c0,4.259,2.738,6.883,6.389,6.883c1.9,0,3.155-0.495,4.106-0.913L243.773,64.684z"/>
		<path class="st2" d="M257.881,65.368l-0.267-2.319H257.5c-1.026,1.445-3.004,2.738-5.627,2.738c-3.727,0-5.628-2.624-5.628-5.286
			c0-4.449,3.954-6.882,11.065-6.845v-0.38c0-1.521-0.419-4.259-4.184-4.259c-1.711,0-3.498,0.532-4.791,1.369l-0.76-2.206
			c1.521-0.988,3.727-1.635,6.046-1.635c5.627,0,6.996,3.84,6.996,7.529v6.882c0,1.597,0.076,3.156,0.305,4.411H257.881z
			 M257.387,55.976c-3.65-0.076-7.796,0.57-7.796,4.145c0,2.167,1.445,3.194,3.156,3.194c2.396,0,3.917-1.521,4.449-3.08
			c0.114-0.342,0.19-0.723,0.19-1.065V55.976z"/>
		<path class="st2" d="M269.897,41.679v5.285h4.791v2.548h-4.791v9.925c0,2.281,0.646,3.574,2.51,3.574
			c0.874,0,1.521-0.114,1.938-0.229l0.152,2.51c-0.646,0.266-1.673,0.457-2.966,0.457c-1.559,0-2.813-0.495-3.612-1.407
			c-0.95-0.988-1.293-2.624-1.293-4.791V49.512h-2.852v-2.548h2.852v-4.411L269.897,41.679z"/>
		<path class="st2" d="M288.644,65.368l-0.267-2.319h-0.114c-1.026,1.445-3.004,2.738-5.627,2.738c-3.727,0-5.628-2.624-5.628-5.286
			c0-4.449,3.954-6.882,11.065-6.845v-0.38c0-1.521-0.419-4.259-4.183-4.259c-1.712,0-3.499,0.532-4.792,1.369l-0.76-2.206
			c1.521-0.988,3.726-1.635,6.046-1.635c5.627,0,6.996,3.84,6.996,7.529v6.882c0,1.597,0.076,3.156,0.305,4.411H288.644z
			 M288.148,55.976c-3.65-0.076-7.795,0.57-7.795,4.145c0,2.167,1.445,3.194,3.156,3.194c2.396,0,3.917-1.521,4.449-3.08
			c0.114-0.342,0.189-0.723,0.189-1.065V55.976z M289.822,39.017l-4.64,5.438h-2.396l3.347-5.438H289.822z"/>
	</g>
	<g>
		<path class="st3" d="M823.267,28.807c1.293-0.215,2.985-0.4,5.14-0.4c2.647,0,4.586,0.615,5.817,1.724
			c1.139,0.985,1.815,2.493,1.815,4.339c0,1.877-0.554,3.354-1.601,4.432c-1.415,1.508-3.724,2.278-6.34,2.278
			c-0.8,0-1.539-0.031-2.154-0.185v8.31h-2.678V28.807z M825.944,38.81c0.585,0.154,1.323,0.216,2.216,0.216
			c3.231,0,5.201-1.57,5.201-4.432c0-2.739-1.938-4.063-4.894-4.063c-1.169,0-2.062,0.092-2.523,0.215V38.81z"/>
		<path class="st3" d="M846.999,49.305l-0.216-1.877h-0.092c-0.831,1.169-2.432,2.216-4.556,2.216c-3.016,0-4.555-2.124-4.555-4.278
			c0-3.601,3.201-5.571,8.956-5.54v-0.308c0-1.231-0.339-3.447-3.386-3.447c-1.385,0-2.831,0.431-3.878,1.108l-0.615-1.785
			c1.231-0.8,3.017-1.323,4.894-1.323c4.555,0,5.663,3.108,5.663,6.094v5.57c0,1.293,0.062,2.555,0.246,3.57H846.999z
			 M846.599,41.703c-2.954-0.062-6.31,0.462-6.31,3.355c0,1.754,1.17,2.585,2.555,2.585c1.939,0,3.17-1.231,3.602-2.493
			c0.092-0.277,0.153-0.585,0.153-0.862V41.703z"/>
		<path class="st3" d="M853.217,46.535c0.801,0.523,2.217,1.077,3.57,1.077c1.97,0,2.894-0.985,2.894-2.216
			c0-1.292-0.77-2-2.771-2.739c-2.678-0.954-3.939-2.431-3.939-4.216c0-2.4,1.939-4.37,5.14-4.37c1.509,0,2.832,0.431,3.663,0.923
			l-0.678,1.97c-0.584-0.369-1.661-0.861-3.047-0.861c-1.6,0-2.492,0.923-2.492,2.031c0,1.231,0.893,1.785,2.831,2.523
			c2.585,0.985,3.909,2.278,3.909,4.494c0,2.616-2.031,4.462-5.571,4.462c-1.631,0-3.139-0.4-4.186-1.016L853.217,46.535z"/>
		<path class="st3" d="M874.024,49.305l-0.216-1.877h-0.092c-0.831,1.169-2.432,2.216-4.556,2.216c-3.016,0-4.555-2.124-4.555-4.278
			c0-3.601,3.201-5.571,8.956-5.54v-0.308c0-1.231-0.339-3.447-3.386-3.447c-1.385,0-2.831,0.431-3.878,1.108l-0.615-1.785
			c1.231-0.8,3.017-1.323,4.894-1.323c4.555,0,5.663,3.108,5.663,6.094v5.57c0,1.293,0.062,2.555,0.246,3.57H874.024z
			 M873.624,41.703c-2.954-0.062-6.31,0.462-6.31,3.355c0,1.754,1.17,2.585,2.555,2.585c1.939,0,3.17-1.231,3.602-2.493
			c0.092-0.277,0.153-0.585,0.153-0.862V41.703z"/>
		<path class="st3" d="M880.612,39.271c0-1.908-0.062-3.447-0.123-4.863h2.431l0.123,2.554h0.062
			c1.108-1.815,2.862-2.893,5.294-2.893c3.601,0,6.31,3.047,6.31,7.571c0,5.355-3.263,8.002-6.771,8.002
			c-1.97,0-3.693-0.862-4.585-2.339h-0.063v8.094h-2.677V39.271z M883.289,43.242c0,0.4,0.063,0.77,0.124,1.108
			c0.492,1.877,2.123,3.17,4.063,3.17c2.862,0,4.523-2.339,4.523-5.755c0-2.985-1.569-5.54-4.432-5.54
			c-1.847,0-3.57,1.323-4.093,3.354c-0.093,0.338-0.186,0.739-0.186,1.108V43.242z"/>
		<path class="st3" d="M911.606,41.733c0,5.509-3.815,7.91-7.417,7.91c-4.031,0-7.14-2.955-7.14-7.663
			c0-4.986,3.262-7.91,7.386-7.91C908.714,34.07,911.606,37.179,911.606,41.733z M899.788,41.887c0,3.263,1.878,5.725,4.524,5.725
			c2.586,0,4.524-2.431,4.524-5.786c0-2.523-1.262-5.724-4.463-5.724C901.174,36.102,899.788,39.056,899.788,41.887z"/>
		<path class="st3" d="M915.025,39.056c0-1.754-0.031-3.263-0.123-4.647h2.369l0.093,2.924h0.123c0.677-2,2.309-3.262,4.124-3.262
			c0.308,0,0.523,0.031,0.77,0.092v2.554c-0.277-0.062-0.554-0.092-0.924-0.092c-1.908,0-3.262,1.447-3.631,3.478
			c-0.062,0.369-0.123,0.8-0.123,1.262v7.94h-2.678V39.056z"/>
		<path class="st3" d="M929.091,30.131v4.278h3.878v2.062h-3.878v8.033c0,1.847,0.523,2.893,2.031,2.893
			c0.708,0,1.231-0.092,1.57-0.185l0.123,2.031c-0.523,0.215-1.354,0.369-2.401,0.369c-1.262,0-2.277-0.4-2.924-1.139
			c-0.769-0.8-1.046-2.124-1.046-3.878v-8.125h-2.309v-2.062h2.309v-3.57L929.091,30.131z"/>
		<path class="st3" d="M937.341,42.349c0.062,3.663,2.4,5.17,5.108,5.17c1.939,0,3.109-0.338,4.125-0.77l0.461,1.939
			c-0.954,0.431-2.585,0.923-4.955,0.923c-4.586,0-7.324-3.016-7.324-7.509c0-4.494,2.646-8.033,6.986-8.033
			c4.862,0,6.155,4.278,6.155,7.017c0,0.554-0.062,0.985-0.093,1.262H937.341z M945.281,40.41c0.03-1.724-0.708-4.401-3.755-4.401
			c-2.739,0-3.939,2.524-4.155,4.401H945.281z"/>
	</g>
	<g>
		<path class="st3" d="M700.944,28.561v12.28c0,4.647,2.063,6.617,4.832,6.617c3.078,0,5.048-2.031,5.048-6.617v-12.28h2.708v12.095
			c0,6.371-3.354,8.987-7.849,8.987c-4.247,0-7.447-2.431-7.447-8.864V28.561H700.944z"/>
		<path class="st3" d="M717.535,46.535c0.801,0.523,2.217,1.077,3.57,1.077c1.97,0,2.894-0.985,2.894-2.216
			c0-1.292-0.77-2-2.771-2.739c-2.678-0.954-3.939-2.431-3.939-4.216c0-2.4,1.939-4.37,5.14-4.37c1.509,0,2.832,0.431,3.663,0.923
			l-0.678,1.97c-0.584-0.369-1.661-0.861-3.047-0.861c-1.6,0-2.492,0.923-2.492,2.031c0,1.231,0.893,1.785,2.831,2.523
			c2.585,0.985,3.909,2.278,3.909,4.494c0,2.616-2.031,4.462-5.571,4.462c-1.631,0-3.139-0.4-4.186-1.016L717.535,46.535z"/>
		<path class="st3" d="M742.559,45.242c0,1.539,0.031,2.893,0.124,4.063h-2.401l-0.153-2.431h-0.062
			c-0.708,1.2-2.277,2.77-4.925,2.77c-2.339,0-5.14-1.292-5.14-6.524v-8.71h2.708v8.248c0,2.832,0.862,4.74,3.324,4.74
			c1.816,0,3.078-1.262,3.57-2.462c0.154-0.4,0.246-0.893,0.246-1.385v-9.141h2.708V45.242z"/>
		<path class="st3" d="M755.303,49.305l-0.216-1.877h-0.092c-0.831,1.169-2.432,2.216-4.556,2.216c-3.016,0-4.555-2.124-4.555-4.278
			c0-3.601,3.201-5.571,8.956-5.54v-0.308c0-1.231-0.339-3.447-3.386-3.447c-1.385,0-2.831,0.431-3.878,1.108l-0.615-1.785
			c1.231-0.8,3.017-1.323,4.894-1.323c4.555,0,5.663,3.108,5.663,6.094v5.57c0,1.293,0.062,2.555,0.246,3.57H755.303z
			 M754.902,41.703c-2.954-0.062-6.31,0.462-6.31,3.355c0,1.754,1.17,2.585,2.555,2.585c1.939,0,3.17-1.231,3.602-2.493
			c0.092-0.277,0.153-0.585,0.153-0.862V41.703z"/>
		<path class="st3" d="M761.892,39.056c0-1.754-0.031-3.263-0.123-4.647h2.369l0.093,2.924h0.123c0.677-2,2.309-3.262,4.124-3.262
			c0.308,0,0.523,0.031,0.77,0.092v2.554c-0.277-0.062-0.554-0.092-0.924-0.092c-1.908,0-3.262,1.447-3.631,3.478
			c-0.062,0.369-0.124,0.8-0.124,1.262v7.94h-2.677V39.056z"/>
		<path class="st3" d="M775.096,30.223c0.031,0.923-0.646,1.662-1.724,1.662c-0.954,0-1.631-0.738-1.631-1.662
			c0-0.954,0.708-1.693,1.692-1.693C774.449,28.53,775.096,29.269,775.096,30.223z M772.08,49.305V34.409h2.708v14.896H772.08z"/>
		<path class="st3" d="M792.762,41.733c0,5.509-3.815,7.91-7.417,7.91c-4.031,0-7.14-2.955-7.14-7.663
			c0-4.986,3.262-7.91,7.386-7.91C789.869,34.07,792.762,37.179,792.762,41.733z M780.943,41.887c0,3.263,1.878,5.725,4.524,5.725
			c2.586,0,4.524-2.431,4.524-5.786c0-2.523-1.262-5.724-4.463-5.724C782.329,36.102,780.943,39.056,780.943,41.887z"/>
	</g>
	<path class="st4" d="M965,560H21c-6.6,0-12-5.4-12-12v-29c0-6.6,5.4-12,12-12h944c6.6,0,12,5.4,12,12v29
		C977,554.6,971.6,560,965,560z"/>
	<g>
		<g>
			<path class="st2" d="M278.473,516.194c2.016-0.305,4.411-0.533,7.035-0.533c4.753,0,8.137,1.104,10.381,3.194
				c2.281,2.092,3.611,5.058,3.611,9.202c0,4.183-1.292,7.605-3.688,9.963c-2.396,2.396-6.351,3.688-11.332,3.688
				c-2.357,0-4.334-0.114-6.008-0.305V516.194z M281.781,538.856c0.836,0.152,2.053,0.19,3.346,0.19
				c7.072,0,10.914-3.955,10.914-10.875c0.037-6.046-3.385-9.887-10.381-9.887c-1.712,0-3.004,0.152-3.879,0.343V538.856z"/>
			<path class="st2" d="M305.699,532.887c0.075,4.525,2.965,6.389,6.312,6.389c2.396,0,3.841-0.419,5.095-0.951l0.57,2.396
				c-1.178,0.532-3.193,1.141-6.121,1.141c-5.666,0-9.051-3.726-9.051-9.277s3.271-9.925,8.633-9.925
				c6.008,0,7.604,5.285,7.604,8.67c0,0.685-0.076,1.217-0.114,1.559H305.699z M315.509,530.491
				c0.038-2.129-0.874-5.438-4.639-5.438c-3.384,0-4.867,3.118-5.134,5.438H315.509z"/>
			<path class="st2" d="M322.43,538.059c0.988,0.646,2.738,1.33,4.411,1.33c2.434,0,3.574-1.217,3.574-2.737
				c0-1.597-0.95-2.472-3.423-3.384c-3.308-1.18-4.867-3.005-4.867-5.21c0-2.966,2.396-5.399,6.351-5.399
				c1.863,0,3.499,0.532,4.525,1.141l-0.837,2.434c-0.723-0.456-2.053-1.064-3.764-1.064c-1.979,0-3.08,1.141-3.08,2.51
				c0,1.521,1.102,2.205,3.498,3.118c3.193,1.217,4.829,2.813,4.829,5.551c0,3.232-2.51,5.514-6.883,5.514
				c-2.015,0-3.878-0.494-5.171-1.255L322.43,538.059z"/>
			<path class="st2" d="M341.975,517.791v5.285h4.791v2.548h-4.791v9.925c0,2.281,0.646,3.574,2.51,3.574
				c0.875,0,1.521-0.114,1.939-0.229l0.152,2.51c-0.646,0.267-1.674,0.456-2.967,0.456c-1.559,0-2.813-0.494-3.611-1.406
				c-0.951-0.989-1.293-2.624-1.293-4.791v-10.039h-2.852v-2.548h2.852v-4.41L341.975,517.791z"/>
			<path class="st2" d="M354.257,517.905c0.038,1.141-0.799,2.053-2.13,2.053c-1.179,0-2.016-0.912-2.016-2.053
				c0-1.179,0.875-2.092,2.092-2.092C353.458,515.813,354.257,516.727,354.257,517.905z M350.53,541.48v-18.404h3.347v18.404H350.53
				z"/>
			<path class="st2" d="M359.428,528.058c0-1.901-0.037-3.46-0.152-4.981h2.967l0.189,3.042h0.076
				c0.913-1.749,3.043-3.46,6.084-3.46c2.548,0,6.502,1.521,6.502,7.833v10.989h-3.346v-10.609c0-2.966-1.103-5.438-4.259-5.438
				c-2.205,0-3.917,1.56-4.487,3.423c-0.151,0.418-0.228,0.988-0.228,1.559v11.065h-3.347V528.058z"/>
			<path class="st2" d="M397.188,532.126c0,6.807-4.715,9.772-9.164,9.772c-4.981,0-8.822-3.65-8.822-9.468
				c0-6.16,4.031-9.772,9.126-9.772C393.613,522.658,397.188,526.499,397.188,532.126z M382.586,532.316
				c0,4.03,2.319,7.072,5.59,7.072c3.193,0,5.589-3.004,5.589-7.148c0-3.118-1.559-7.072-5.514-7.072
				C384.297,525.168,382.586,528.818,382.586,532.316z"/>
			<path class="st2" d="M415.667,519.883h-0.075l-4.297,2.319l-0.646-2.548l5.398-2.89h2.853v24.716h-3.232V519.883z"/>
			<path class="st2" d="M428.178,526.118c0-1.406,0.95-2.396,2.281-2.396s2.205,0.989,2.244,2.396c0,1.331-0.875,2.357-2.282,2.357
				C429.09,528.476,428.178,527.449,428.178,526.118z M428.178,539.541c0-1.406,0.95-2.396,2.281-2.396s2.205,0.989,2.244,2.396
				c0,1.331-0.875,2.357-2.282,2.357C429.09,541.898,428.178,540.872,428.178,539.541z"/>
			<path class="st2" d="M458.293,529.465h-9.963v9.24h11.104v2.775h-14.411v-25.629h13.841v2.776H448.33v8.099h9.963V529.465z"/>
			<path class="st2" d="M463.616,528.058c0-1.901-0.038-3.46-0.152-4.981h2.966l0.19,3.042h0.076c0.913-1.749,3.042-3.46,6.084-3.46
				c2.548,0,6.502,1.521,6.502,7.833v10.989h-3.347v-10.609c0-2.966-1.102-5.438-4.258-5.438c-2.205,0-3.917,1.56-4.487,3.423
				c-0.151,0.418-0.228,0.988-0.228,1.559v11.065h-3.347V528.058z"/>
			<path class="st2" d="M492.629,541.48c0.076-1.255,0.152-3.118,0.152-4.753v-22.245h3.309v11.56h0.076
				c1.178-2.053,3.308-3.384,6.273-3.384c4.563,0,7.795,3.803,7.758,9.393c0,6.578-4.146,9.848-8.252,9.848
				c-2.662,0-4.791-1.026-6.16-3.46h-0.114l-0.151,3.042H492.629z M496.09,534.104c0,0.418,0.076,0.837,0.151,1.217
				c0.646,2.319,2.586,3.917,5.02,3.917c3.498,0,5.59-2.853,5.59-7.073c0-3.688-1.901-6.844-5.476-6.844
				c-2.281,0-4.411,1.559-5.096,4.106c-0.076,0.38-0.189,0.836-0.189,1.369V534.104z"/>
			<path class="st2" d="M529.817,536.461c0,1.901,0.038,3.574,0.152,5.02h-2.966l-0.19-3.004h-0.076
				c-0.874,1.482-2.813,3.422-6.084,3.422c-2.89,0-6.351-1.597-6.351-8.061v-10.762h3.347v10.191c0,3.498,1.065,5.855,4.106,5.855
				c2.244,0,3.803-1.56,4.411-3.042c0.19-0.494,0.304-1.103,0.304-1.711v-11.294h3.347V536.461z"/>
			<path class="st2" d="M534.913,538.059c0.989,0.646,2.737,1.33,4.411,1.33c2.434,0,3.574-1.217,3.574-2.737
				c0-1.597-0.951-2.472-3.422-3.384c-3.309-1.18-4.867-3.005-4.867-5.21c0-2.966,2.396-5.399,6.35-5.399
				c1.863,0,3.498,0.532,4.525,1.141l-0.837,2.434c-0.722-0.456-2.054-1.064-3.765-1.064c-1.977,0-3.08,1.141-3.08,2.51
				c0,1.521,1.104,2.205,3.498,3.118c3.195,1.217,4.83,2.813,4.83,5.551c0,3.232-2.51,5.514-6.883,5.514
				c-2.016,0-3.879-0.494-5.172-1.255L534.913,538.059z"/>
			<path class="st2" d="M563.547,540.796c-0.875,0.456-2.814,1.064-5.286,1.064c-5.552,0-9.164-3.764-9.164-9.392
				c0-5.666,3.879-9.772,9.887-9.772c1.978,0,3.727,0.494,4.639,0.95l-0.761,2.586c-0.798-0.456-2.053-0.875-3.878-0.875
				c-4.221,0-6.503,3.118-6.503,6.959c0,4.259,2.738,6.883,6.389,6.883c1.901,0,3.156-0.494,4.107-0.913L563.547,540.796z"/>
			<path class="st2" d="M577.654,541.48l-0.267-2.319h-0.114c-1.026,1.444-3.004,2.737-5.627,2.737
				c-3.727,0-5.628-2.623-5.628-5.285c0-4.449,3.954-6.883,11.065-6.845v-0.38c0-1.521-0.418-4.259-4.184-4.259
				c-1.711,0-3.498,0.532-4.791,1.369l-0.76-2.206c1.521-0.988,3.727-1.635,6.045-1.635c5.629,0,6.997,3.841,6.997,7.529v6.882
				c0,1.598,0.076,3.156,0.304,4.411H577.654z M577.16,532.088c-3.65-0.075-7.795,0.57-7.795,4.146c0,2.167,1.444,3.193,3.155,3.193
				c2.396,0,3.917-1.521,4.449-3.08c0.114-0.342,0.19-0.722,0.19-1.064V532.088z"/>
			<path class="st2" d="M609.747,514.482v22.245c0,1.635,0.038,3.498,0.151,4.753h-3.004l-0.151-3.194h-0.076
				c-1.026,2.054-3.271,3.612-6.274,3.612c-4.449,0-7.871-3.764-7.871-9.354c-0.038-6.122,3.765-9.887,8.252-9.887
				c2.813,0,4.715,1.331,5.551,2.813h0.076v-10.989H609.747z M606.4,530.567c0-0.418-0.037-0.988-0.152-1.407
				c-0.494-2.129-2.318-3.878-4.828-3.878c-3.461,0-5.514,3.042-5.514,7.11c0,3.727,1.824,6.807,5.438,6.807
				c2.243,0,4.297-1.483,4.904-3.993c0.115-0.456,0.152-0.912,0.152-1.444V530.567z"/>
			<path class="st2" d="M617.162,532.887c0.076,4.525,2.966,6.389,6.313,6.389c2.395,0,3.84-0.419,5.095-0.951l0.57,2.396
				c-1.179,0.532-3.194,1.141-6.122,1.141c-5.666,0-9.05-3.726-9.05-9.277s3.271-9.925,8.632-9.925c6.008,0,7.605,5.285,7.605,8.67
				c0,0.685-0.076,1.217-0.115,1.559H617.162z M626.973,530.491c0.037-2.129-0.875-5.438-4.639-5.438
				c-3.385,0-4.867,3.118-5.134,5.438H626.973z"/>
			<path class="st2" d="M634.35,514.482h3.346v26.998h-3.346V514.482z"/>
			<path class="st2" d="M651.498,516.156c1.598-0.267,3.688-0.495,6.351-0.495c3.271,0,5.665,0.761,7.187,2.13
				c1.406,1.217,2.244,3.08,2.244,5.361c0,2.319-0.686,4.145-1.979,5.476c-1.748,1.863-4.601,2.813-7.832,2.813
				c-0.989,0-1.902-0.037-2.662-0.228v10.267h-3.309V516.156z M654.807,528.514c0.723,0.19,1.635,0.267,2.738,0.267
				c3.992,0,6.426-1.939,6.426-5.476c0-3.385-2.396-5.02-6.047-5.02c-1.444,0-2.547,0.114-3.117,0.267V528.514z"/>
			<path class="st2" d="M680.816,541.48l-0.266-2.319h-0.114c-1.026,1.444-3.004,2.737-5.628,2.737
				c-3.727,0-5.627-2.623-5.627-5.285c0-4.449,3.954-6.883,11.064-6.845v-0.38c0-1.521-0.418-4.259-4.183-4.259
				c-1.711,0-3.498,0.532-4.791,1.369l-0.761-2.206c1.521-0.988,3.727-1.635,6.046-1.635c5.628,0,6.997,3.841,6.997,7.529v6.882
				c0,1.598,0.076,3.156,0.304,4.411H680.816z M680.322,532.088c-3.65-0.075-7.795,0.57-7.795,4.146
				c0,2.167,1.445,3.193,3.156,3.193c2.395,0,3.916-1.521,4.449-3.08c0.113-0.342,0.189-0.722,0.189-1.064V532.088z"/>
			<path class="st2" d="M688.954,528.818c0-2.168-0.038-4.031-0.152-5.742h2.929l0.113,3.612h0.152
				c0.836-2.472,2.852-4.03,5.096-4.03c0.38,0,0.646,0.038,0.95,0.114v3.156c-0.343-0.076-0.685-0.114-1.141-0.114
				c-2.357,0-4.03,1.787-4.487,4.297c-0.076,0.456-0.152,0.988-0.152,1.559v9.811h-3.308V528.818z"/>
			<path class="st2" d="M701.541,528.058c0-1.901-0.039-3.46-0.152-4.981h2.966l0.19,3.042h0.076c0.912-1.749,3.041-3.46,6.084-3.46
				c2.547,0,6.502,1.521,6.502,7.833v10.989h-3.347v-10.609c0-2.966-1.103-5.438-4.259-5.438c-2.205,0-3.916,1.56-4.486,3.423
				c-0.152,0.418-0.229,0.988-0.229,1.559v11.065h-3.346V528.058z"/>
			<path class="st2" d="M732.835,541.48l-0.267-2.319h-0.113c-1.027,1.444-3.004,2.737-5.628,2.737
				c-3.727,0-5.628-2.623-5.628-5.285c0-4.449,3.955-6.883,11.065-6.845v-0.38c0-1.521-0.418-4.259-4.183-4.259
				c-1.711,0-3.498,0.532-4.791,1.369l-0.761-2.206c1.521-0.988,3.727-1.635,6.046-1.635c5.628,0,6.996,3.841,6.996,7.529v6.882
				c0,1.598,0.076,3.156,0.305,4.411H732.835z M732.341,532.088c-3.65-0.075-7.795,0.57-7.795,4.146
				c0,2.167,1.444,3.193,3.155,3.193c2.396,0,3.917-1.521,4.449-3.08c0.114-0.342,0.19-0.722,0.19-1.064V532.088z"/>
			<path class="st2" d="M740.516,538.059c0.989,0.646,2.738,1.33,4.412,1.33c2.434,0,3.574-1.217,3.574-2.737
				c0-1.597-0.951-2.472-3.423-3.384c-3.308-1.18-4.867-3.005-4.867-5.21c0-2.966,2.396-5.399,6.351-5.399
				c1.863,0,3.498,0.532,4.525,1.141l-0.838,2.434c-0.722-0.456-2.053-1.064-3.764-1.064c-1.978,0-3.08,1.141-3.08,2.51
				c0,1.521,1.103,2.205,3.498,3.118c3.194,1.217,4.829,2.813,4.829,5.551c0,3.232-2.509,5.514-6.882,5.514
				c-2.016,0-3.879-0.494-5.172-1.255L740.516,538.059z"/>
			<path class="st2" d="M772.686,532.126c0,6.807-4.715,9.772-9.164,9.772c-4.98,0-8.822-3.65-8.822-9.468
				c0-6.16,4.031-9.772,9.127-9.772C769.111,522.658,772.686,526.499,772.686,532.126z M758.084,532.316
				c0,4.03,2.319,7.072,5.59,7.072c3.193,0,5.59-3.004,5.59-7.148c0-3.118-1.56-7.072-5.514-7.072
				C759.795,525.168,758.084,528.818,758.084,532.316z"/>
		</g>
	</g>
	<g>
		<path class="st5" d="M443.446,179.219c-2.612,0.938-7.77,2.478-13.863,2.478c-6.831,0-12.457-1.741-16.877-5.96
			c-3.884-3.75-6.295-9.778-6.295-16.81c0.066-13.461,9.309-23.306,24.444-23.306c5.224,0,9.309,1.138,11.251,2.076l-1.406,4.755
			c-2.411-1.072-5.425-1.942-9.979-1.942c-10.983,0-18.149,6.831-18.149,18.149c0,11.452,6.898,18.216,17.412,18.216
			c3.817,0,6.43-0.536,7.769-1.206v-13.461h-9.175v-4.688h14.868V179.219z"/>
		<path class="st5" d="M452.152,158.927c0-3.817-0.066-7.099-0.268-10.113h5.156l0.201,6.362h0.268
			c1.474-4.353,5.023-7.099,8.975-7.099c0.67,0,1.139,0.067,1.674,0.201v5.559c-0.603-0.134-1.205-0.201-2.009-0.201
			c-4.152,0-7.099,3.147-7.902,7.567c-0.134,0.804-0.269,1.741-0.269,2.746v17.278h-5.826V158.927z"/>
		<path class="st5" d="M476.665,166.093c0.134,7.969,5.224,11.251,11.116,11.251c4.22,0,6.765-0.737,8.975-1.674l1.005,4.219
			c-2.076,0.938-5.626,2.009-10.782,2.009c-9.979,0-15.939-6.563-15.939-16.341c0-9.777,5.76-17.479,15.202-17.479
			c10.582,0,13.395,9.309,13.395,15.269c0,1.206-0.134,2.143-0.201,2.746H476.665z M493.943,161.874
			c0.066-3.75-1.541-9.577-8.171-9.577c-5.96,0-8.572,5.491-9.041,9.577H493.943z"/>
		<path class="st5" d="M530.04,180.022c-1.541,0.804-4.956,1.875-9.31,1.875c-9.777,0-16.14-6.63-16.14-16.542
			c0-9.979,6.831-17.211,17.412-17.211c3.482,0,6.563,0.871,8.171,1.674l-1.34,4.554c-1.406-0.804-3.616-1.54-6.831-1.54
			c-7.434,0-11.452,5.492-11.452,12.255c0,7.501,4.822,12.122,11.252,12.122c3.348,0,5.559-0.871,7.232-1.607L530.04,180.022z"/>
		<path class="st5" d="M543.502,139.706c0.066,2.009-1.406,3.617-3.751,3.617c-2.075,0-3.549-1.607-3.549-3.617
			c0-2.076,1.54-3.683,3.684-3.683C542.096,136.023,543.502,137.63,543.502,139.706z M536.938,181.228v-32.414h5.894v32.414H536.938
			z"/>
		<path class="st5" d="M570.558,181.228l-0.469-4.085h-0.201c-1.808,2.545-5.29,4.822-9.911,4.822c-6.563,0-9.912-4.621-9.912-9.309
			c0-7.835,6.965-12.122,19.488-12.055v-0.67c0-2.679-0.736-7.5-7.366-7.5c-3.014,0-6.161,0.938-8.438,2.411l-1.34-3.884
			c2.68-1.741,6.563-2.879,10.648-2.879c9.912,0,12.323,6.764,12.323,13.26v12.122c0,2.813,0.134,5.559,0.535,7.769H570.558z
			 M569.688,164.686c-6.43-0.134-13.729,1.005-13.729,7.3c0,3.817,2.545,5.626,5.559,5.626c4.22,0,6.898-2.679,7.836-5.425
			c0.2-0.603,0.335-1.272,0.335-1.875V164.686z"/>
	</g>
</g>
</svg>