<!-- Generator: Adobe Illustrator 22.1.0, SVG Export Plug-In  -->
<svg version="1.1"
	 xmlns="http://www.w3.org/2000/svg" xmlns:xlink="http://www.w3.org/1999/xlink" xmlns:a="http://ns.adobe.com/AdobeSVGViewerExtensions/3.0/"
	 x="0px" y="0px" width="28.871px" height="37.169px" viewBox="0 0 28.871 37.169"
	 style="enable-background:new 0 0 28.871 37.169;" xml:space="preserve">
<style type="text/css">
	.st0{fill-rule:evenodd;clip-rule:evenodd;fill:#AA1C23;}
	.st1{fill-rule:evenodd;clip-rule:evenodd;fill:#8F2328;}
	.st2{fill-rule:evenodd;clip-rule:evenodd;fill:#741F23;}
	.st3{fill-rule:evenodd;clip-rule:evenodd;fill:#707070;}
	.st4{fill-rule:evenodd;clip-rule:evenodd;fill:#C7C8C8;}
</style>
<defs>
</defs>
<g>
	<g>
		<path class="st0" d="M4.63,1.599l17.095-1.578c2.793-0.258,5.288,1.816,5.546,4.609l1.578,17.095
			c0.258,2.792-1.816,5.288-4.609,5.546l-1.357,0.125l-0.275-2.971L8.228,25.753l0.274,2.971l-1.357,0.125
			c-2.793,0.258-5.288-1.816-5.546-4.609L0.022,7.146C-0.236,4.353,1.838,1.857,4.63,1.599z"/>
		<polygon class="st1" points="16.533,37.169 22.439,24.345 8.381,25.643 		"/>
		<path class="st2" d="M5.471,3.57L21.26,2.113c2.128-0.196,4.03,1.384,4.226,3.512l0.957,10.372
			c0.196,2.128-1.384,4.03-3.512,4.227L7.142,21.681c-2.128,0.196-4.03-1.384-4.227-3.513L1.959,7.797
			C1.763,5.669,3.343,3.766,5.471,3.57z"/>
		<path class="st1" d="M6.097,4.195l14.662-1.353c1.969-0.182,3.729,1.281,3.911,3.249l0.885,9.597
			c0.182,1.969-1.28,3.729-3.249,3.911L7.644,20.952c-1.969,0.182-3.729-1.281-3.911-3.25L2.847,8.105
			C2.666,6.137,4.128,4.377,6.097,4.195z"/>
		<path class="st3" d="M6.188,5.092l14.646-1.352c1.502-0.139,2.845,0.977,2.984,2.48l0.877,9.498
			c0.139,1.502-0.977,2.845-2.48,2.984L7.568,20.053c-1.502,0.139-2.845-0.977-2.984-2.48L3.708,8.076
			C3.569,6.573,4.685,5.231,6.188,5.092z"/>
		<path class="st4" d="M6.868,6.043L20.338,4.8c1.301-0.12,2.463,0.846,2.583,2.147l0.759,8.222c0.12,1.301-0.846,2.462-2.147,2.583
			l-13.47,1.243c-1.301,0.12-2.463-0.846-2.583-2.146L4.722,8.626C4.602,7.325,5.568,6.163,6.868,6.043z"/>
	</g>
	<polygon class="st2" points="16.533,37.169 20.644,28.241 16.226,33.833 10.857,29.144 10.857,29.144 	"/>
</g>
</svg>